<svg width="309" height="32" viewBox="0 0 309 32" fill="none" xmlns="http://www.w3.org/2000/svg">
<path d="M10.1351 23.8808C10.1351 27.2038 8.24322 29 5.09008 29C1.93693 29 0 27.1589 0 23.8808V8.11917C0.0450449 4.8411 1.93693 3 5.13512 3C8.33331 3 10.1802 4.8411 10.1802 8.11917V23.8808H10.1351ZM5.13512 25.8566C5.8108 25.8566 6.08107 25.228 6.08107 24.1952V7.75993C6.08107 6.72712 5.8108 6.09845 5.13512 6.09845C4.45945 6.09845 4.18918 6.72712 4.18918 7.75993V24.1952C4.18918 25.228 4.45945 25.8566 5.13512 25.8566Z" fill="#F6F6F6"/>
<path d="M18.2882 16.0226H18.3783V3.26953H21.9369V28.7307H18.2882L15.4054 13.8222H15.3603V28.7307H11.8018V3.26953H16.1711L18.3333 16.0226H18.2882Z" fill="#F6F6F6"/>
<path d="M30.0469 6.63741V28.7307H25.9478V6.63741H23.2451V3.26953H32.7946V6.63741H30.0919H30.0469Z" fill="#A58491"/>
<path d="M40.3631 17.6391H38.1559V28.7307H34.0117V3.26953H38.1559V14.1365H40.3631V3.26953H44.4621V28.7307H40.3631V17.6391Z" fill="#A58491"/>
<path d="M46.1738 3.26953H54.1918V6.63741H50.2729V14.1814H53.7414V17.5493H50.2729V25.3628H54.1918V28.7307H46.1738V3.26953Z" fill="#A58491"/>
<path d="M60.5404 28.7307L59.2791 15.798L58.9638 12.6547H58.8737V15.798V28.7307H55.4053V3.26953H60.4503L61.7116 16.292L61.9818 19.1659H62.0719L62.2971 16.292L63.6935 3.26953H68.6935V28.7307H64.9998V12.6547H64.9098L64.6845 15.798L63.3782 28.7307H60.5404Z" fill="#F6F6F6"/>
<path d="M80.4056 23.8808C80.4056 27.2038 78.5137 29 75.3606 29C72.2074 29 70.2705 27.1589 70.2705 23.8808V8.11917C70.2705 4.7962 72.1624 3 75.3606 3C78.5588 3 80.4056 4.8411 80.4056 8.11917V23.8808ZM75.3606 25.8566C76.0363 25.8566 76.3065 25.228 76.3065 24.1952V7.75993C76.3065 6.72712 76.0363 6.09845 75.3606 6.09845C74.6849 6.09845 74.4146 6.72712 74.4146 7.75993V24.1952C74.4146 25.228 74.6849 25.8566 75.3606 25.8566Z" fill="#F6F6F6"/>
<path d="M84.1451 28.7307L81.082 3.26953H85.3163L86.2622 16.741L86.4874 20.1538H86.5775L86.8027 16.741L87.7487 3.26953H91.8027L88.7397 28.7307H84.1H84.1451Z" fill="#F6F6F6"/>
<path d="M92.8818 3.26953H100.9V6.63741H96.9809V14.1814H100.449V17.5493H96.9809V25.3628H100.9V28.7307H92.8818V3.26953Z" fill="#F6F6F6"/>
<mask id="path-10-inside-1_1035_25663" fill="white">
<path d="M114.9 0H308.9V32H114.9V0Z"/>
</mask>
<path d="M114.9 32H115.9V0H114.9H113.9V32H114.9Z" fill="#A58491" mask="url(#path-10-inside-1_1035_25663)"/>
<path d="M129.74 12C129.74 11.6067 129.74 11.2283 129.74 10.865C129.74 10.5017 129.74 10.0983 129.74 9.655V7.25C129.74 6.80333 129.74 6.39333 129.74 6.02C129.74 5.64667 129.74 5.26333 129.74 4.87C129.94 4.87 130.173 4.87 130.44 4.87C130.707 4.87 130.993 4.87 131.3 4.87C131.61 4.87 131.933 4.87 132.27 4.87C132.827 4.87 133.293 4.935 133.67 5.065C134.047 5.19167 134.33 5.4 134.52 5.69C134.71 5.97667 134.805 6.36333 134.805 6.85C134.805 7.24667 134.727 7.60833 134.57 7.935C134.417 8.26167 134.163 8.525 133.81 8.725C133.457 8.92167 132.982 9.02167 132.385 9.025L132.8 8.53L133.87 9.945C134.037 10.165 134.213 10.3983 134.4 10.645C134.587 10.8917 134.768 11.1333 134.945 11.37C135.125 11.6067 135.283 11.8167 135.42 12H134.065C133.852 11.7067 133.645 11.425 133.445 11.155C133.248 10.8817 133.055 10.615 132.865 10.355L131.62 8.645L132.33 9.255H130.685V8.3H131.98C132.343 8.3 132.643 8.25833 132.88 8.175C133.12 8.08833 133.298 7.94833 133.415 7.755C133.535 7.56167 133.595 7.30333 133.595 6.98C133.595 6.71667 133.553 6.50833 133.47 6.355C133.387 6.20167 133.277 6.08667 133.14 6.01C133.007 5.93333 132.86 5.88333 132.7 5.86C132.54 5.83667 132.383 5.825 132.23 5.825H130.075L130.89 5.05C130.89 5.46 130.89 5.85 130.89 6.22C130.89 6.59 130.89 6.99333 130.89 7.43V9.655C130.89 10.0983 130.89 10.5017 130.89 10.865C130.89 11.2283 130.89 11.6067 130.89 12H129.74ZM138.54 12.115C137.93 12.115 137.429 12.0017 137.035 11.775C136.642 11.5483 136.35 11.2383 136.16 10.845C135.974 10.4517 135.88 10 135.88 9.49C135.88 8.98667 135.97 8.54 136.15 8.15C136.334 7.76 136.6 7.45667 136.95 7.24C137.3 7.02 137.724 6.91 138.22 6.91C138.65 6.91 139.02 6.99167 139.33 7.155C139.64 7.315 139.879 7.555 140.045 7.875C140.212 8.195 140.295 8.59167 140.295 9.065C140.295 9.19167 140.292 9.30667 140.285 9.41C140.282 9.51 140.272 9.61 140.255 9.71L139.32 9.3C139.327 9.25 139.332 9.20167 139.335 9.155C139.339 9.105 139.34 9.05833 139.34 9.015C139.34 8.605 139.237 8.28833 139.03 8.065C138.827 7.83833 138.56 7.725 138.23 7.725C137.974 7.725 137.75 7.795 137.56 7.935C137.37 8.075 137.222 8.26667 137.115 8.51C137.012 8.75333 136.96 9.03333 136.96 9.35V9.51C136.96 9.86333 137.02 10.1667 137.14 10.42C137.264 10.6733 137.45 10.8683 137.7 11.005C137.954 11.1417 138.272 11.21 138.655 11.21C138.802 11.21 138.962 11.1983 139.135 11.175C139.312 11.1483 139.489 11.1083 139.665 11.055C139.842 11.0017 140.009 10.9333 140.165 10.85L140.205 11.78C140.079 11.8467 139.93 11.905 139.76 11.955C139.59 12.005 139.402 12.0433 139.195 12.07C138.992 12.1 138.774 12.115 138.54 12.115ZM136.31 9.71V8.98L139.615 8.94L140.255 9.205V9.71H136.31ZM137.38 6.27C137.6 5.93333 137.82 5.59667 138.04 5.26C138.26 4.92 138.479 4.58333 138.695 4.25L139.845 4.22C139.659 4.45333 139.474 4.685 139.29 4.915C139.107 5.14167 138.925 5.36667 138.745 5.59C138.569 5.81333 138.39 6.03667 138.21 6.26L137.38 6.27ZM143.819 12.1C143.272 12.1 142.807 11.9883 142.424 11.765C142.044 11.5383 141.754 11.23 141.554 10.84C141.354 10.45 141.254 10.0083 141.254 9.515C141.254 9.01833 141.347 8.57333 141.534 8.18C141.724 7.78667 142.002 7.47667 142.369 7.25C142.739 7.02333 143.192 6.91 143.729 6.91C143.922 6.91 144.114 6.92667 144.304 6.96C144.497 6.99 144.679 7.03333 144.849 7.09C145.019 7.14333 145.169 7.20667 145.299 7.28L145.209 8.23C145.022 8.12333 144.847 8.04167 144.684 7.985C144.524 7.92833 144.376 7.89 144.239 7.87C144.102 7.84667 143.977 7.835 143.864 7.835C143.404 7.835 143.036 7.985 142.759 8.285C142.482 8.58167 142.344 8.98333 142.344 9.49C142.344 9.81667 142.407 10.1083 142.534 10.365C142.661 10.6217 142.849 10.825 143.099 10.975C143.352 11.125 143.666 11.2 144.039 11.2C144.176 11.2 144.312 11.1883 144.449 11.165C144.586 11.1383 144.719 11.1 144.849 11.05C144.982 10.9967 145.111 10.93 145.234 10.85L145.309 11.805C145.196 11.8583 145.066 11.9083 144.919 11.955C144.772 11.9983 144.607 12.0333 144.424 12.06C144.241 12.0867 144.039 12.1 143.819 12.1ZM146.611 12C146.611 11.6367 146.611 11.285 146.611 10.945C146.611 10.605 146.611 10.23 146.611 9.82V9.32C146.611 9.01333 146.611 8.73167 146.611 8.475C146.611 8.21833 146.611 7.97333 146.611 7.74C146.611 7.50667 146.611 7.27 146.611 7.03L147.681 6.995C147.681 7.23833 147.681 7.47833 147.681 7.715C147.681 7.95167 147.681 8.2 147.681 8.46C147.681 8.72 147.681 9.00667 147.681 9.32V9.82C147.681 10.23 147.681 10.605 147.681 10.945C147.681 11.285 147.681 11.6367 147.681 12H146.611ZM147.131 6.02C146.918 6.02 146.744 5.965 146.611 5.855C146.481 5.74167 146.416 5.565 146.416 5.325C146.416 5.10167 146.481 4.93167 146.611 4.815C146.744 4.69833 146.921 4.64 147.141 4.64C147.364 4.64 147.539 4.7 147.666 4.82C147.796 4.94 147.861 5.10833 147.861 5.325C147.861 5.565 147.796 5.74167 147.666 5.855C147.536 5.965 147.358 6.02 147.131 6.02ZM151.307 12.12C150.964 12.12 150.671 12.0633 150.427 11.95C150.187 11.8367 150.004 11.66 149.877 11.42C149.754 11.18 149.692 10.87 149.692 10.49C149.692 10.2267 149.692 9.96333 149.692 9.7C149.692 9.43333 149.692 9.16833 149.692 8.905C149.692 8.63833 149.692 8.37333 149.692 8.11C149.692 7.84667 149.692 7.58333 149.692 7.32C149.692 6.96667 149.692 6.64 149.692 6.34C149.692 6.04 149.692 5.73167 149.692 5.415L150.747 5.205C150.747 5.45833 150.747 5.69333 150.747 5.91C150.747 6.12667 150.747 6.34833 150.747 6.575C150.747 6.79833 150.747 7.04667 150.747 7.32V10.195C150.747 10.535 150.816 10.7917 150.952 10.965C151.089 11.135 151.302 11.22 151.592 11.22C151.712 11.22 151.841 11.2 151.977 11.16C152.117 11.1167 152.246 11.0517 152.362 10.965L152.437 11.865C152.361 11.915 152.262 11.96 152.142 12C152.026 12.0367 151.894 12.065 151.747 12.085C151.604 12.1083 151.457 12.12 151.307 12.12ZM148.787 7.855V7.03H152.397V7.855C152.071 7.855 151.742 7.855 151.412 7.855C151.082 7.855 150.761 7.855 150.447 7.855H149.992H148.787ZM155.053 12.115C154.836 12.115 154.621 12.1 154.408 12.07C154.198 12.04 154 11.9983 153.813 11.945C153.63 11.8883 153.468 11.8267 153.328 11.76L153.408 10.79C153.558 10.8767 153.721 10.9533 153.898 11.02C154.075 11.0833 154.258 11.1333 154.448 11.17C154.641 11.2033 154.835 11.22 155.028 11.22C155.188 11.22 155.335 11.205 155.468 11.175C155.605 11.1417 155.713 11.08 155.793 10.99C155.876 10.9 155.918 10.7667 155.918 10.59C155.918 10.4733 155.88 10.3767 155.803 10.3C155.726 10.2233 155.601 10.155 155.428 10.095C155.255 10.0317 155.018 9.95833 154.718 9.875C154.441 9.80167 154.2 9.71 153.993 9.6C153.79 9.49 153.631 9.34333 153.518 9.16C153.405 8.97667 153.348 8.735 153.348 8.435C153.348 7.95167 153.503 7.57667 153.813 7.31C154.123 7.04333 154.538 6.91 155.058 6.91C155.278 6.91 155.491 6.92833 155.698 6.965C155.905 6.99833 156.093 7.04333 156.263 7.1C156.436 7.15333 156.583 7.21 156.703 7.27L156.618 8.24C156.465 8.14333 156.298 8.06333 156.118 8C155.941 7.93333 155.771 7.885 155.608 7.855C155.445 7.82167 155.306 7.805 155.193 7.805C155.063 7.805 154.94 7.82333 154.823 7.86C154.71 7.89333 154.618 7.95333 154.548 8.04C154.478 8.12333 154.443 8.23667 154.443 8.38C154.443 8.49333 154.47 8.59 154.523 8.67C154.576 8.75 154.673 8.82333 154.813 8.89C154.956 8.95667 155.163 9.02667 155.433 9.1C155.77 9.19667 156.055 9.29833 156.288 9.405C156.525 9.51167 156.703 9.65167 156.823 9.825C156.943 9.99833 157.003 10.2383 157.003 10.545C157.003 10.8517 156.936 11.1233 156.803 11.36C156.67 11.5967 156.46 11.7817 156.173 11.915C155.886 12.0483 155.513 12.115 155.053 12.115ZM162.042 12.12C161.575 12.12 161.187 11.9983 160.877 11.755C160.57 11.5117 160.34 11.1917 160.187 10.795C160.037 10.395 159.962 9.96333 159.962 9.5C159.962 9.01 160.042 8.56833 160.202 8.175C160.365 7.78167 160.604 7.47167 160.917 7.245C161.23 7.01833 161.61 6.905 162.057 6.905C162.274 6.905 162.474 6.93333 162.657 6.99C162.84 7.04667 163.002 7.125 163.142 7.225C163.282 7.325 163.399 7.43833 163.492 7.565H163.592V7.065C163.592 6.64833 163.592 6.24333 163.592 5.85C163.592 5.45333 163.592 5.06333 163.592 4.68L164.662 4.565C164.662 4.965 164.662 5.37 164.662 5.78C164.662 6.18667 164.662 6.615 164.662 7.065V9.82C164.662 10.23 164.662 10.605 164.662 10.945C164.662 11.285 164.662 11.6367 164.662 12H163.742L163.682 11.33H163.592C163.465 11.5 163.324 11.6433 163.167 11.76C163.014 11.8767 162.844 11.965 162.657 12.025C162.47 12.0883 162.265 12.12 162.042 12.12ZM162.407 11.185C162.587 11.185 162.75 11.1567 162.897 11.1C163.044 11.04 163.174 10.9567 163.287 10.85C163.404 10.7433 163.505 10.6167 163.592 10.47V8.45C163.502 8.31667 163.395 8.20667 163.272 8.12C163.149 8.03 163.014 7.96333 162.867 7.92C162.72 7.87333 162.57 7.85 162.417 7.85C162.11 7.85 161.857 7.925 161.657 8.075C161.457 8.225 161.307 8.42667 161.207 8.68C161.107 8.93 161.057 9.20667 161.057 9.51C161.057 9.8 161.104 10.0733 161.197 10.33C161.294 10.5833 161.44 10.79 161.637 10.95C161.837 11.1067 162.094 11.185 162.407 11.185ZM165.658 7.505C165.784 7.31833 165.886 7.13 165.963 6.94C166.039 6.74667 166.094 6.545 166.128 6.335C166.161 6.12167 166.178 5.89333 166.178 5.65C166.178 5.48 166.178 5.305 166.178 5.125C166.178 4.945 166.178 4.76333 166.178 4.58L166.693 4.54C166.909 4.56 167.066 4.64333 167.163 4.79C167.259 4.93333 167.308 5.11167 167.308 5.325C167.308 5.54167 167.276 5.755 167.213 5.965C167.153 6.175 167.069 6.375 166.963 6.565C166.856 6.755 166.738 6.92833 166.608 7.085C166.478 7.24167 166.344 7.37667 166.208 7.49L165.658 7.505ZM168.676 12C168.676 11.6367 168.676 11.285 168.676 10.945C168.676 10.605 168.676 10.23 168.676 9.82V9.32C168.676 9.01333 168.676 8.73167 168.676 8.475C168.676 8.21833 168.676 7.97333 168.676 7.74C168.676 7.50667 168.676 7.27 168.676 7.03L169.746 6.995C169.746 7.23833 169.746 7.47833 169.746 7.715C169.746 7.95167 169.746 8.2 169.746 8.46C169.746 8.72 169.746 9.00667 169.746 9.32V9.82C169.746 10.23 169.746 10.605 169.746 10.945C169.746 11.285 169.746 11.6367 169.746 12H168.676ZM169.196 6.02C168.983 6.02 168.809 5.965 168.676 5.855C168.546 5.74167 168.481 5.565 168.481 5.325C168.481 5.10167 168.546 4.93167 168.676 4.815C168.809 4.69833 168.986 4.64 169.206 4.64C169.429 4.64 169.604 4.7 169.731 4.82C169.861 4.94 169.926 5.10833 169.926 5.325C169.926 5.565 169.861 5.74167 169.731 5.855C169.601 5.965 169.423 6.02 169.196 6.02ZM171.402 12C171.402 11.6367 171.402 11.285 171.402 10.945C171.402 10.605 171.402 10.23 171.402 9.82V9.32C171.402 8.95 171.402 8.57333 171.402 8.19C171.402 7.80333 171.402 7.41667 171.402 7.03L172.317 6.97L172.357 7.87H172.462C172.569 7.71667 172.704 7.56667 172.867 7.42C173.034 7.27 173.227 7.14667 173.447 7.05C173.667 6.95333 173.919 6.905 174.202 6.905C174.719 6.905 175.101 7.055 175.347 7.355C175.597 7.655 175.722 8.095 175.722 8.675C175.722 8.89167 175.722 9.08833 175.722 9.265C175.722 9.43833 175.722 9.62333 175.722 9.82C175.722 10.22 175.722 10.5933 175.722 10.94C175.722 11.2833 175.722 11.6367 175.722 12H174.652C174.652 11.6367 174.652 11.285 174.652 10.945C174.652 10.6017 174.652 10.245 174.652 9.875V8.985C174.652 8.625 174.591 8.35333 174.467 8.17C174.344 7.98667 174.117 7.895 173.787 7.895C173.594 7.895 173.417 7.935 173.257 8.015C173.097 8.09167 172.952 8.19667 172.822 8.33C172.692 8.46 172.576 8.605 172.472 8.765V9.875C172.472 10.2583 172.472 10.6183 172.472 10.955C172.472 11.2883 172.472 11.6367 172.472 12H171.402ZM178.397 12C178.284 11.69 178.169 11.375 178.052 11.055C177.939 10.735 177.825 10.4233 177.712 10.12L177.387 9.24C177.254 8.87333 177.119 8.505 176.982 8.135C176.845 7.76167 176.71 7.39333 176.577 7.03L177.727 6.99C177.854 7.38333 177.977 7.775 178.097 8.165C178.22 8.555 178.345 8.94833 178.472 9.345L178.947 10.84H179.047L179.522 9.34C179.649 8.93667 179.774 8.545 179.897 8.165C180.02 7.78167 180.14 7.40333 180.257 7.03H181.397C181.264 7.39667 181.129 7.76667 180.992 8.14C180.855 8.51 180.72 8.88 180.587 9.25L180.262 10.14C180.149 10.4533 180.035 10.7633 179.922 11.07C179.812 11.3767 179.699 11.6867 179.582 12H178.397ZM184.631 12.115C184.021 12.115 183.519 12.0017 183.126 11.775C182.732 11.5483 182.441 11.2383 182.251 10.845C182.064 10.4517 181.971 10 181.971 9.49C181.971 8.98667 182.061 8.54 182.241 8.15C182.424 7.76 182.691 7.45667 183.041 7.24C183.391 7.02 183.814 6.91 184.311 6.91C184.741 6.91 185.111 6.99167 185.421 7.155C185.731 7.315 185.969 7.555 186.136 7.875C186.302 8.195 186.386 8.59167 186.386 9.065C186.386 9.19167 186.382 9.30667 186.376 9.41C186.372 9.51 186.362 9.61 186.346 9.71L185.411 9.3C185.417 9.25 185.422 9.20167 185.426 9.155C185.429 9.105 185.431 9.05833 185.431 9.015C185.431 8.605 185.327 8.28833 185.121 8.065C184.917 7.83833 184.651 7.725 184.321 7.725C184.064 7.725 183.841 7.795 183.651 7.935C183.461 8.075 183.312 8.26667 183.206 8.51C183.102 8.75333 183.051 9.03333 183.051 9.35V9.51C183.051 9.86333 183.111 10.1667 183.231 10.42C183.354 10.6733 183.541 10.8683 183.791 11.005C184.044 11.1417 184.362 11.21 184.746 11.21C184.892 11.21 185.052 11.1983 185.226 11.175C185.402 11.1483 185.579 11.1083 185.756 11.055C185.932 11.0017 186.099 10.9333 186.256 10.85L186.296 11.78C186.169 11.8467 186.021 11.905 185.851 11.955C185.681 12.005 185.492 12.0433 185.286 12.07C185.082 12.1 184.864 12.115 184.631 12.115ZM182.401 9.71V8.98L185.706 8.94L186.346 9.205V9.71H182.401ZM189.144 12.115C188.927 12.115 188.712 12.1 188.499 12.07C188.289 12.04 188.091 11.9983 187.904 11.945C187.721 11.8883 187.559 11.8267 187.419 11.76L187.499 10.79C187.649 10.8767 187.812 10.9533 187.989 11.02C188.166 11.0833 188.349 11.1333 188.539 11.17C188.732 11.2033 188.926 11.22 189.119 11.22C189.279 11.22 189.426 11.205 189.559 11.175C189.696 11.1417 189.804 11.08 189.884 10.99C189.967 10.9 190.009 10.7667 190.009 10.59C190.009 10.4733 189.971 10.3767 189.894 10.3C189.817 10.2233 189.692 10.155 189.519 10.095C189.346 10.0317 189.109 9.95833 188.809 9.875C188.532 9.80167 188.291 9.71 188.084 9.6C187.881 9.49 187.722 9.34333 187.609 9.16C187.496 8.97667 187.439 8.735 187.439 8.435C187.439 7.95167 187.594 7.57667 187.904 7.31C188.214 7.04333 188.629 6.91 189.149 6.91C189.369 6.91 189.582 6.92833 189.789 6.965C189.996 6.99833 190.184 7.04333 190.354 7.1C190.527 7.15333 190.674 7.21 190.794 7.27L190.709 8.24C190.556 8.14333 190.389 8.06333 190.209 8C190.032 7.93333 189.862 7.885 189.699 7.855C189.536 7.82167 189.397 7.805 189.284 7.805C189.154 7.805 189.031 7.82333 188.914 7.86C188.801 7.89333 188.709 7.95333 188.639 8.04C188.569 8.12333 188.534 8.23667 188.534 8.38C188.534 8.49333 188.561 8.59 188.614 8.67C188.667 8.75 188.764 8.82333 188.904 8.89C189.047 8.95667 189.254 9.02667 189.524 9.1C189.861 9.19667 190.146 9.29833 190.379 9.405C190.616 9.51167 190.794 9.65167 190.914 9.825C191.034 9.99833 191.094 10.2383 191.094 10.545C191.094 10.8517 191.027 11.1233 190.894 11.36C190.761 11.5967 190.551 11.7817 190.264 11.915C189.977 12.0483 189.604 12.115 189.144 12.115ZM194.29 12.12C193.947 12.12 193.653 12.0633 193.41 11.95C193.17 11.8367 192.987 11.66 192.86 11.42C192.737 11.18 192.675 10.87 192.675 10.49C192.675 10.2267 192.675 9.96333 192.675 9.7C192.675 9.43333 192.675 9.16833 192.675 8.905C192.675 8.63833 192.675 8.37333 192.675 8.11C192.675 7.84667 192.675 7.58333 192.675 7.32C192.675 6.96667 192.675 6.64 192.675 6.34C192.675 6.04 192.675 5.73167 192.675 5.415L193.73 5.205C193.73 5.45833 193.73 5.69333 193.73 5.91C193.73 6.12667 193.73 6.34833 193.73 6.575C193.73 6.79833 193.73 7.04667 193.73 7.32V10.195C193.73 10.535 193.798 10.7917 193.935 10.965C194.072 11.135 194.285 11.22 194.575 11.22C194.695 11.22 194.823 11.2 194.96 11.16C195.1 11.1167 195.228 11.0517 195.345 10.965L195.42 11.865C195.343 11.915 195.245 11.96 195.125 12C195.008 12.0367 194.877 12.065 194.73 12.085C194.587 12.1083 194.44 12.12 194.29 12.12ZM191.77 7.855V7.03H195.38V7.855C195.053 7.855 194.725 7.855 194.395 7.855C194.065 7.855 193.743 7.855 193.43 7.855H192.975H191.77ZM196.581 12C196.581 11.6367 196.581 11.285 196.581 10.945C196.581 10.605 196.581 10.23 196.581 9.82V9.32C196.581 9.01333 196.581 8.73167 196.581 8.475C196.581 8.21833 196.581 7.97333 196.581 7.74C196.581 7.50667 196.581 7.27 196.581 7.03L197.651 6.995C197.651 7.23833 197.651 7.47833 197.651 7.715C197.651 7.95167 197.651 8.2 197.651 8.46C197.651 8.72 197.651 9.00667 197.651 9.32V9.82C197.651 10.23 197.651 10.605 197.651 10.945C197.651 11.285 197.651 11.6367 197.651 12H196.581ZM197.101 6.02C196.887 6.02 196.714 5.965 196.581 5.855C196.451 5.74167 196.386 5.565 196.386 5.325C196.386 5.10167 196.451 4.93167 196.581 4.815C196.714 4.69833 196.891 4.64 197.111 4.64C197.334 4.64 197.509 4.7 197.636 4.82C197.766 4.94 197.831 5.10833 197.831 5.325C197.831 5.565 197.766 5.74167 197.636 5.855C197.506 5.965 197.327 6.02 197.101 6.02ZM200.962 14.035C200.592 14.035 200.282 14.0017 200.032 13.935C199.782 13.8717 199.582 13.7833 199.432 13.67C199.285 13.56 199.18 13.435 199.117 13.295C199.057 13.1583 199.027 13.0183 199.027 12.875C199.027 12.6517 199.08 12.465 199.187 12.315C199.294 12.1683 199.419 12.0533 199.562 11.97C199.705 11.8867 199.829 11.8283 199.932 11.795V11.71C199.879 11.6933 199.812 11.6583 199.732 11.605C199.655 11.5483 199.585 11.47 199.522 11.37C199.459 11.2667 199.427 11.1383 199.427 10.985C199.427 10.8717 199.447 10.765 199.487 10.665C199.53 10.565 199.595 10.475 199.682 10.395C199.772 10.3117 199.887 10.24 200.027 10.18V10.095C199.944 10.0617 199.842 10.0067 199.722 9.93C199.602 9.85333 199.484 9.75333 199.367 9.63C199.254 9.50667 199.157 9.355 199.077 9.175C199 8.995 198.962 8.78333 198.962 8.54C198.962 8.22333 199.04 7.94167 199.197 7.695C199.354 7.44833 199.582 7.25667 199.882 7.12C200.182 6.98 200.545 6.91 200.972 6.91C201.139 6.91 201.285 6.91833 201.412 6.935C201.539 6.95167 201.67 6.97 201.807 6.99C201.944 7.00667 202.112 7.015 202.312 7.015H203.787V7.785C203.467 7.785 203.155 7.785 202.852 7.785C202.552 7.785 202.245 7.785 201.932 7.785L202.227 7.295C202.49 7.435 202.682 7.61667 202.802 7.84C202.922 8.06333 202.982 8.31833 202.982 8.605C202.982 8.93833 202.912 9.22 202.772 9.45C202.635 9.67667 202.445 9.86 202.202 10C201.959 10.14 201.679 10.245 201.362 10.315C201.039 10.3917 200.799 10.46 200.642 10.52C200.489 10.5767 200.412 10.6617 200.412 10.775C200.412 10.855 200.445 10.9167 200.512 10.96C200.579 11.0033 200.682 11.035 200.822 11.055C200.962 11.075 201.145 11.085 201.372 11.085H201.582C202.029 11.085 202.4 11.1217 202.697 11.195C202.994 11.265 203.215 11.3867 203.362 11.56C203.512 11.7333 203.587 11.97 203.587 12.27C203.587 12.5767 203.509 12.8417 203.352 13.065C203.199 13.2883 202.992 13.4717 202.732 13.615C202.472 13.7583 202.189 13.8633 201.882 13.93C201.575 14 201.269 14.035 200.962 14.035ZM201.072 13.2C201.409 13.2 201.689 13.155 201.912 13.065C202.135 12.9783 202.302 12.875 202.412 12.755C202.522 12.6383 202.577 12.535 202.577 12.445C202.577 12.3383 202.544 12.2483 202.477 12.175C202.41 12.1017 202.285 12.045 202.102 12.005C201.919 11.9683 201.654 11.95 201.307 11.95H201.132C200.955 11.9567 200.78 11.9883 200.607 12.045C200.434 12.105 200.289 12.1833 200.172 12.28C200.059 12.38 200.002 12.4933 200.002 12.62C200.002 12.6933 200.02 12.765 200.057 12.835C200.097 12.905 200.159 12.9667 200.242 13.02C200.329 13.0767 200.44 13.12 200.577 13.15C200.714 13.1833 200.879 13.2 201.072 13.2ZM200.927 9.57C201.03 9.55333 201.144 9.52833 201.267 9.495C201.39 9.45833 201.507 9.40667 201.617 9.34C201.727 9.27333 201.817 9.18667 201.887 9.08C201.957 8.97333 201.992 8.84167 201.992 8.685C201.992 8.475 201.939 8.305 201.832 8.175C201.725 8.04167 201.592 7.94333 201.432 7.88C201.275 7.81667 201.117 7.785 200.957 7.785C200.787 7.785 200.625 7.81667 200.472 7.88C200.322 7.94333 200.197 8.03833 200.097 8.165C200 8.29167 199.952 8.44667 199.952 8.63C199.952 8.81 199.999 8.965 200.092 9.095C200.185 9.225 200.305 9.33 200.452 9.41C200.602 9.49 200.76 9.54333 200.927 9.57ZM205.978 12.105C205.694 12.105 205.441 12.0483 205.218 11.935C204.994 11.8183 204.818 11.6517 204.688 11.435C204.561 11.215 204.498 10.9483 204.498 10.635C204.498 10.3583 204.544 10.1267 204.638 9.94C204.734 9.75 204.861 9.595 205.018 9.475C205.174 9.355 205.349 9.26167 205.543 9.195C205.736 9.12833 205.931 9.08 206.128 9.05L207.603 8.82C207.616 8.54333 207.574 8.33167 207.478 8.185C207.384 8.03833 207.251 7.93833 207.078 7.885C206.908 7.83167 206.714 7.805 206.498 7.805C206.384 7.805 206.261 7.81333 206.128 7.83C205.998 7.84667 205.859 7.875 205.713 7.915C205.569 7.95167 205.418 7.99833 205.258 8.055C205.101 8.10833 204.939 8.17333 204.773 8.25L204.713 7.3C204.836 7.25 204.974 7.20167 205.128 7.155C205.281 7.10833 205.446 7.06667 205.623 7.03C205.803 6.99 205.988 6.96 206.178 6.94C206.368 6.92 206.561 6.91 206.758 6.91C207.151 6.91 207.488 6.96833 207.768 7.085C208.048 7.20167 208.263 7.38833 208.413 7.645C208.563 7.89833 208.638 8.22833 208.638 8.635C208.638 8.795 208.638 8.99333 208.638 9.23C208.638 9.46667 208.638 9.68667 208.638 9.89V10.49C208.638 10.7267 208.638 10.9667 208.638 11.21C208.638 11.4533 208.638 11.7167 208.638 12H207.673L207.613 11.34H207.518C207.421 11.4633 207.299 11.5833 207.153 11.7C207.009 11.8167 206.838 11.9133 206.638 11.99C206.441 12.0667 206.221 12.105 205.978 12.105ZM206.328 11.255C206.488 11.255 206.644 11.22 206.798 11.15C206.954 11.0767 207.099 10.9733 207.233 10.84C207.366 10.7067 207.481 10.545 207.578 10.355V9.475C207.528 9.505 207.463 9.53333 207.383 9.56C207.306 9.58667 207.189 9.61667 207.033 9.65C206.876 9.68333 206.656 9.725 206.373 9.775C206.209 9.80167 206.069 9.85 205.953 9.92C205.836 9.99 205.744 10.0817 205.678 10.195C205.614 10.305 205.583 10.4367 205.583 10.59C205.583 10.8333 205.656 11.005 205.803 11.105C205.953 11.205 206.128 11.255 206.328 11.255ZM212.131 12.12C211.788 12.12 211.495 12.0633 211.251 11.95C211.011 11.8367 210.828 11.66 210.701 11.42C210.578 11.18 210.516 10.87 210.516 10.49C210.516 10.2267 210.516 9.96333 210.516 9.7C210.516 9.43333 210.516 9.16833 210.516 8.905C210.516 8.63833 210.516 8.37333 210.516 8.11C210.516 7.84667 210.516 7.58333 210.516 7.32C210.516 6.96667 210.516 6.64 210.516 6.34C210.516 6.04 210.516 5.73167 210.516 5.415L211.571 5.205C211.571 5.45833 211.571 5.69333 211.571 5.91C211.571 6.12667 211.571 6.34833 211.571 6.575C211.571 6.79833 211.571 7.04667 211.571 7.32V10.195C211.571 10.535 211.64 10.7917 211.776 10.965C211.913 11.135 212.126 11.22 212.416 11.22C212.536 11.22 212.665 11.2 212.801 11.16C212.941 11.1167 213.07 11.0517 213.186 10.965L213.261 11.865C213.185 11.915 213.086 11.96 212.966 12C212.85 12.0367 212.718 12.065 212.571 12.085C212.428 12.1083 212.281 12.12 212.131 12.12ZM209.611 7.855V7.03H213.221V7.855C212.895 7.855 212.566 7.855 212.236 7.855C211.906 7.855 211.585 7.855 211.271 7.855H210.816H209.611ZM214.422 12C214.422 11.6367 214.422 11.285 214.422 10.945C214.422 10.605 214.422 10.23 214.422 9.82V9.32C214.422 9.01333 214.422 8.73167 214.422 8.475C214.422 8.21833 214.422 7.97333 214.422 7.74C214.422 7.50667 214.422 7.27 214.422 7.03L215.492 6.995C215.492 7.23833 215.492 7.47833 215.492 7.715C215.492 7.95167 215.492 8.2 215.492 8.46C215.492 8.72 215.492 9.00667 215.492 9.32V9.82C215.492 10.23 215.492 10.605 215.492 10.945C215.492 11.285 215.492 11.6367 215.492 12H214.422ZM214.942 6.02C214.729 6.02 214.555 5.965 214.422 5.855C214.292 5.74167 214.227 5.565 214.227 5.325C214.227 5.10167 214.292 4.93167 214.422 4.815C214.555 4.69833 214.732 4.64 214.952 4.64C215.175 4.64 215.35 4.7 215.477 4.82C215.607 4.94 215.672 5.10833 215.672 5.325C215.672 5.565 215.607 5.74167 215.477 5.855C215.347 5.965 215.169 6.02 214.942 6.02ZM219.388 12.12C218.962 12.12 218.588 12.0483 218.268 11.905C217.948 11.7617 217.68 11.5683 217.463 11.325C217.25 11.0783 217.09 10.7983 216.983 10.485C216.877 10.1683 216.823 9.83667 216.823 9.49C216.823 8.99333 216.923 8.55167 217.123 8.165C217.323 7.775 217.613 7.46833 217.993 7.245C218.373 7.01833 218.832 6.905 219.368 6.905C219.778 6.905 220.142 6.97 220.458 7.1C220.775 7.23 221.04 7.41333 221.253 7.65C221.47 7.88333 221.633 8.15667 221.743 8.47C221.853 8.78333 221.908 9.12333 221.908 9.49C221.908 9.98667 221.808 10.4333 221.608 10.83C221.408 11.2267 221.118 11.5417 220.738 11.775C220.362 12.005 219.912 12.12 219.388 12.12ZM219.383 11.22C219.703 11.22 219.97 11.1383 220.183 10.975C220.397 10.8083 220.555 10.5933 220.658 10.33C220.765 10.0667 220.818 9.78667 220.818 9.49C220.818 9.14667 220.758 8.85 220.638 8.6C220.522 8.34667 220.355 8.15167 220.138 8.015C219.925 7.875 219.672 7.805 219.378 7.805C219.062 7.805 218.793 7.88 218.573 8.03C218.357 8.17667 218.192 8.37833 218.078 8.635C217.968 8.88833 217.913 9.17333 217.913 9.49C217.913 9.78667 217.967 10.0667 218.073 10.33C218.183 10.5933 218.347 10.8083 218.563 10.975C218.783 11.1383 219.057 11.22 219.383 11.22ZM223.225 12C223.225 11.6367 223.225 11.285 223.225 10.945C223.225 10.605 223.225 10.23 223.225 9.82V9.32C223.225 8.95 223.225 8.57333 223.225 8.19C223.225 7.80333 223.225 7.41667 223.225 7.03L224.14 6.97L224.18 7.87H224.285C224.392 7.71667 224.527 7.56667 224.69 7.42C224.857 7.27 225.05 7.14667 225.27 7.05C225.49 6.95333 225.742 6.905 226.025 6.905C226.542 6.905 226.923 7.055 227.17 7.355C227.42 7.655 227.545 8.095 227.545 8.675C227.545 8.89167 227.545 9.08833 227.545 9.265C227.545 9.43833 227.545 9.62333 227.545 9.82C227.545 10.22 227.545 10.5933 227.545 10.94C227.545 11.2833 227.545 11.6367 227.545 12H226.475C226.475 11.6367 226.475 11.285 226.475 10.945C226.475 10.6017 226.475 10.245 226.475 9.875V8.985C226.475 8.625 226.413 8.35333 226.29 8.17C226.167 7.98667 225.94 7.895 225.61 7.895C225.417 7.895 225.24 7.935 225.08 8.015C224.92 8.09167 224.775 8.19667 224.645 8.33C224.515 8.46 224.398 8.605 224.295 8.765V9.875C224.295 10.2583 224.295 10.6183 224.295 10.955C224.295 11.2883 224.295 11.6367 224.295 12H223.225ZM232.566 12.115C232.349 12.115 232.134 12.1 231.921 12.07C231.711 12.04 231.513 11.9983 231.326 11.945C231.143 11.8883 230.981 11.8267 230.841 11.76L230.921 10.79C231.071 10.8767 231.234 10.9533 231.411 11.02C231.588 11.0833 231.771 11.1333 231.961 11.17C232.154 11.2033 232.348 11.22 232.541 11.22C232.701 11.22 232.848 11.205 232.981 11.175C233.118 11.1417 233.226 11.08 233.306 10.99C233.389 10.9 233.431 10.7667 233.431 10.59C233.431 10.4733 233.393 10.3767 233.316 10.3C233.239 10.2233 233.114 10.155 232.941 10.095C232.768 10.0317 232.531 9.95833 232.231 9.875C231.954 9.80167 231.713 9.71 231.506 9.6C231.303 9.49 231.144 9.34333 231.031 9.16C230.918 8.97667 230.861 8.735 230.861 8.435C230.861 7.95167 231.016 7.57667 231.326 7.31C231.636 7.04333 232.051 6.91 232.571 6.91C232.791 6.91 233.004 6.92833 233.211 6.965C233.418 6.99833 233.606 7.04333 233.776 7.1C233.949 7.15333 234.096 7.21 234.216 7.27L234.131 8.24C233.978 8.14333 233.811 8.06333 233.631 8C233.454 7.93333 233.284 7.885 233.121 7.855C232.958 7.82167 232.819 7.805 232.706 7.805C232.576 7.805 232.453 7.82333 232.336 7.86C232.223 7.89333 232.131 7.95333 232.061 8.04C231.991 8.12333 231.956 8.23667 231.956 8.38C231.956 8.49333 231.983 8.59 232.036 8.67C232.089 8.75 232.186 8.82333 232.326 8.89C232.469 8.95667 232.676 9.02667 232.946 9.1C233.283 9.19667 233.568 9.29833 233.801 9.405C234.038 9.51167 234.216 9.65167 234.336 9.825C234.456 9.99833 234.516 10.2383 234.516 10.545C234.516 10.8517 234.449 11.1233 234.316 11.36C234.183 11.5967 233.973 11.7817 233.686 11.915C233.399 12.0483 233.026 12.115 232.566 12.115ZM237.191 12.12C236.674 12.12 236.291 11.97 236.041 11.67C235.794 11.3667 235.671 10.925 235.671 10.345C235.671 10.125 235.671 9.93333 235.671 9.77C235.671 9.60667 235.671 9.44333 235.671 9.28C235.671 8.97333 235.671 8.695 235.671 8.445C235.671 8.195 235.671 7.95667 235.671 7.73C235.671 7.50333 235.671 7.27 235.671 7.03L236.741 6.99C236.741 7.35333 236.741 7.71 236.741 8.06C236.741 8.41 236.741 8.77667 236.741 9.16V10.06C236.741 10.4167 236.803 10.6867 236.926 10.87C237.053 11.0533 237.279 11.145 237.606 11.145C237.789 11.145 237.959 11.1067 238.116 11.03C238.273 10.95 238.414 10.845 238.541 10.715C238.671 10.5817 238.788 10.435 238.891 10.275V9.16C238.891 8.77667 238.891 8.41667 238.891 8.08C238.891 7.74 238.891 7.39 238.891 7.03H239.961C239.961 7.39 239.961 7.745 239.961 8.095C239.961 8.44167 239.961 8.83667 239.961 9.28V9.82C239.961 10.23 239.961 10.605 239.961 10.945C239.961 11.285 239.961 11.6367 239.961 12H239.046L239.006 11.15H238.901C238.794 11.3067 238.659 11.46 238.496 11.61C238.333 11.7567 238.143 11.8783 237.926 11.975C237.709 12.0717 237.464 12.12 237.191 12.12ZM241.516 12C241.516 11.6367 241.516 11.285 241.516 10.945C241.516 10.605 241.516 10.23 241.516 9.82V9.32C241.516 8.95 241.516 8.57333 241.516 8.19C241.516 7.80333 241.516 7.41667 241.516 7.03L242.431 6.97L242.471 7.95H242.571C242.704 7.65667 242.856 7.435 243.026 7.285C243.196 7.135 243.369 7.035 243.546 6.985C243.722 6.93167 243.887 6.905 244.041 6.905C244.127 6.905 244.217 6.91167 244.311 6.925C244.404 6.93833 244.492 6.96 244.576 6.99L244.481 8.05C244.364 8.03 244.259 8.015 244.166 8.005C244.072 7.995 243.966 7.99 243.846 7.99C243.752 7.99 243.649 8.00333 243.536 8.03C243.422 8.05333 243.307 8.10333 243.191 8.18C243.077 8.25667 242.967 8.37167 242.861 8.525C242.757 8.675 242.666 8.87333 242.586 9.12V9.875C242.586 10.2583 242.586 10.6183 242.586 10.955C242.586 11.2883 242.586 11.6367 242.586 12H241.516ZM247.673 12C247.673 11.6367 247.673 11.285 247.673 10.945C247.673 10.605 247.673 10.23 247.673 9.82V7.065C247.673 6.64833 247.673 6.24167 247.673 5.845C247.673 5.44833 247.673 5.06 247.673 4.68L248.743 4.565C248.743 4.965 248.743 5.37 248.743 5.78C248.743 6.18667 248.743 6.615 248.743 7.065V9.82C248.743 10.23 248.743 10.605 248.743 10.945C248.743 11.285 248.743 11.6367 248.743 12H247.673ZM251.56 12.105C251.277 12.105 251.023 12.0483 250.8 11.935C250.577 11.8183 250.4 11.6517 250.27 11.435C250.143 11.215 250.08 10.9483 250.08 10.635C250.08 10.3583 250.127 10.1267 250.22 9.94C250.317 9.75 250.443 9.595 250.6 9.475C250.757 9.355 250.932 9.26167 251.125 9.195C251.318 9.12833 251.513 9.08 251.71 9.05L253.185 8.82C253.198 8.54333 253.157 8.33167 253.06 8.185C252.967 8.03833 252.833 7.93833 252.66 7.885C252.49 7.83167 252.297 7.805 252.08 7.805C251.967 7.805 251.843 7.81333 251.71 7.83C251.58 7.84667 251.442 7.875 251.295 7.915C251.152 7.95167 251 7.99833 250.84 8.055C250.683 8.10833 250.522 8.17333 250.355 8.25L250.295 7.3C250.418 7.25 250.557 7.20167 250.71 7.155C250.863 7.10833 251.028 7.06667 251.205 7.03C251.385 6.99 251.57 6.96 251.76 6.94C251.95 6.92 252.143 6.91 252.34 6.91C252.733 6.91 253.07 6.96833 253.35 7.085C253.63 7.20167 253.845 7.38833 253.995 7.645C254.145 7.89833 254.22 8.22833 254.22 8.635C254.22 8.795 254.22 8.99333 254.22 9.23C254.22 9.46667 254.22 9.68667 254.22 9.89V10.49C254.22 10.7267 254.22 10.9667 254.22 11.21C254.22 11.4533 254.22 11.7167 254.22 12H253.255L253.195 11.34H253.1C253.003 11.4633 252.882 11.5833 252.735 11.7C252.592 11.8167 252.42 11.9133 252.22 11.99C252.023 12.0667 251.803 12.105 251.56 12.105ZM251.91 11.255C252.07 11.255 252.227 11.22 252.38 11.15C252.537 11.0767 252.682 10.9733 252.815 10.84C252.948 10.7067 253.063 10.545 253.16 10.355V9.475C253.11 9.505 253.045 9.53333 252.965 9.56C252.888 9.58667 252.772 9.61667 252.615 9.65C252.458 9.68333 252.238 9.725 251.955 9.775C251.792 9.80167 251.652 9.85 251.535 9.92C251.418 9.99 251.327 10.0817 251.26 10.195C251.197 10.305 251.165 10.4367 251.165 10.59C251.165 10.8333 251.238 11.005 251.385 11.105C251.535 11.205 251.71 11.255 251.91 11.255ZM257.758 12C257.758 11.6367 257.758 11.285 257.758 10.945C257.758 10.605 257.758 10.23 257.758 9.82V9.32C257.758 8.95 257.758 8.57333 257.758 8.19C257.758 7.80333 257.758 7.41667 257.758 7.03L258.673 6.97L258.713 7.865H258.818C258.924 7.71167 259.056 7.56167 259.213 7.415C259.369 7.26833 259.553 7.14667 259.763 7.05C259.976 6.95333 260.218 6.905 260.488 6.905C260.888 6.905 261.194 7.005 261.408 7.205C261.624 7.40167 261.766 7.685 261.833 8.055L261.903 8.08C261.919 8.17 261.931 8.265 261.938 8.365C261.948 8.46167 261.953 8.565 261.953 8.675C261.953 8.89167 261.953 9.08833 261.953 9.265C261.953 9.43833 261.953 9.62333 261.953 9.82C261.953 10.22 261.953 10.5933 261.953 10.94C261.953 11.2833 261.953 11.6367 261.953 12H260.888C260.888 11.6367 260.888 11.285 260.888 10.945C260.888 10.6017 260.888 10.245 260.888 9.875V8.985C260.888 8.625 260.828 8.35333 260.708 8.17C260.591 7.98667 260.378 7.895 260.068 7.895C259.884 7.895 259.718 7.935 259.568 8.015C259.418 8.095 259.281 8.20167 259.158 8.335C259.034 8.465 258.924 8.60833 258.828 8.765V9.875C258.828 10.2583 258.828 10.6183 258.828 10.955C258.828 11.2883 258.828 11.6367 258.828 12H257.758ZM263.983 12C263.983 11.6367 263.983 11.285 263.983 10.945C263.983 10.6017 263.983 10.245 263.983 9.875V8.985C263.983 8.625 263.923 8.35333 263.803 8.17C263.686 7.98667 263.474 7.895 263.168 7.895C262.984 7.895 262.816 7.935 262.663 8.015C262.513 8.09167 262.376 8.19667 262.253 8.33C262.129 8.46 262.018 8.605 261.918 8.765L261.763 7.88H261.868C261.984 7.72333 262.123 7.57 262.283 7.42C262.446 7.27 262.636 7.14667 262.853 7.05C263.069 6.95333 263.314 6.905 263.588 6.905C264.098 6.905 264.469 7.05833 264.703 7.365C264.936 7.67167 265.053 8.10833 265.053 8.675C265.053 8.89167 265.053 9.08833 265.053 9.265C265.053 9.43833 265.053 9.62333 265.053 9.82C265.053 10.22 265.053 10.5933 265.053 10.94C265.053 11.2833 265.053 11.6367 265.053 12H263.983ZM266.599 12C266.599 11.6367 266.599 11.285 266.599 10.945C266.599 10.605 266.599 10.23 266.599 9.82V9.32C266.599 9.01333 266.599 8.73167 266.599 8.475C266.599 8.21833 266.599 7.97333 266.599 7.74C266.599 7.50667 266.599 7.27 266.599 7.03L267.669 6.995C267.669 7.23833 267.669 7.47833 267.669 7.715C267.669 7.95167 267.669 8.2 267.669 8.46C267.669 8.72 267.669 9.00667 267.669 9.32V9.82C267.669 10.23 267.669 10.605 267.669 10.945C267.669 11.285 267.669 11.6367 267.669 12H266.599ZM267.119 6.02C266.905 6.02 266.732 5.965 266.599 5.855C266.469 5.74167 266.404 5.565 266.404 5.325C266.404 5.10167 266.469 4.93167 266.599 4.815C266.732 4.69833 266.909 4.64 267.129 4.64C267.352 4.64 267.527 4.7 267.654 4.82C267.784 4.94 267.849 5.10833 267.849 5.325C267.849 5.565 267.784 5.74167 267.654 5.855C267.524 5.965 267.345 6.02 267.119 6.02ZM270.98 14.035C270.61 14.035 270.3 14.0017 270.05 13.935C269.8 13.8717 269.6 13.7833 269.45 13.67C269.303 13.56 269.198 13.435 269.135 13.295C269.075 13.1583 269.045 13.0183 269.045 12.875C269.045 12.6517 269.098 12.465 269.205 12.315C269.312 12.1683 269.437 12.0533 269.58 11.97C269.723 11.8867 269.847 11.8283 269.95 11.795V11.71C269.897 11.6933 269.83 11.6583 269.75 11.605C269.673 11.5483 269.603 11.47 269.54 11.37C269.477 11.2667 269.445 11.1383 269.445 10.985C269.445 10.8717 269.465 10.765 269.505 10.665C269.548 10.565 269.613 10.475 269.7 10.395C269.79 10.3117 269.905 10.24 270.045 10.18V10.095C269.962 10.0617 269.86 10.0067 269.74 9.93C269.62 9.85333 269.502 9.75333 269.385 9.63C269.272 9.50667 269.175 9.355 269.095 9.175C269.018 8.995 268.98 8.78333 268.98 8.54C268.98 8.22333 269.058 7.94167 269.215 7.695C269.372 7.44833 269.6 7.25667 269.9 7.12C270.2 6.98 270.563 6.91 270.99 6.91C271.157 6.91 271.303 6.91833 271.43 6.935C271.557 6.95167 271.688 6.97 271.825 6.99C271.962 7.00667 272.13 7.015 272.33 7.015H273.805V7.785C273.485 7.785 273.173 7.785 272.87 7.785C272.57 7.785 272.263 7.785 271.95 7.785L272.245 7.295C272.508 7.435 272.7 7.61667 272.82 7.84C272.94 8.06333 273 8.31833 273 8.605C273 8.93833 272.93 9.22 272.79 9.45C272.653 9.67667 272.463 9.86 272.22 10C271.977 10.14 271.697 10.245 271.38 10.315C271.057 10.3917 270.817 10.46 270.66 10.52C270.507 10.5767 270.43 10.6617 270.43 10.775C270.43 10.855 270.463 10.9167 270.53 10.96C270.597 11.0033 270.7 11.035 270.84 11.055C270.98 11.075 271.163 11.085 271.39 11.085H271.6C272.047 11.085 272.418 11.1217 272.715 11.195C273.012 11.265 273.233 11.3867 273.38 11.56C273.53 11.7333 273.605 11.97 273.605 12.27C273.605 12.5767 273.527 12.8417 273.37 13.065C273.217 13.2883 273.01 13.4717 272.75 13.615C272.49 13.7583 272.207 13.8633 271.9 13.93C271.593 14 271.287 14.035 270.98 14.035ZM271.09 13.2C271.427 13.2 271.707 13.155 271.93 13.065C272.153 12.9783 272.32 12.875 272.43 12.755C272.54 12.6383 272.595 12.535 272.595 12.445C272.595 12.3383 272.562 12.2483 272.495 12.175C272.428 12.1017 272.303 12.045 272.12 12.005C271.937 11.9683 271.672 11.95 271.325 11.95H271.15C270.973 11.9567 270.798 11.9883 270.625 12.045C270.452 12.105 270.307 12.1833 270.19 12.28C270.077 12.38 270.02 12.4933 270.02 12.62C270.02 12.6933 270.038 12.765 270.075 12.835C270.115 12.905 270.177 12.9667 270.26 13.02C270.347 13.0767 270.458 13.12 270.595 13.15C270.732 13.1833 270.897 13.2 271.09 13.2ZM270.945 9.57C271.048 9.55333 271.162 9.52833 271.285 9.495C271.408 9.45833 271.525 9.40667 271.635 9.34C271.745 9.27333 271.835 9.18667 271.905 9.08C271.975 8.97333 272.01 8.84167 272.01 8.685C272.01 8.475 271.957 8.305 271.85 8.175C271.743 8.04167 271.61 7.94333 271.45 7.88C271.293 7.81667 271.135 7.785 270.975 7.785C270.805 7.785 270.643 7.81667 270.49 7.88C270.34 7.94333 270.215 8.03833 270.115 8.165C270.018 8.29167 269.97 8.44667 269.97 8.63C269.97 8.81 270.017 8.965 270.11 9.095C270.203 9.225 270.323 9.33 270.47 9.41C270.62 9.49 270.778 9.54333 270.945 9.57ZM274.874 12C274.874 11.6367 274.874 11.285 274.874 10.945C274.874 10.605 274.874 10.23 274.874 9.82V9.32C274.874 8.95 274.874 8.57333 274.874 8.19C274.874 7.80333 274.874 7.41667 274.874 7.03L275.789 6.97L275.829 7.95H275.929C276.063 7.65667 276.214 7.435 276.384 7.285C276.554 7.135 276.728 7.035 276.904 6.985C277.081 6.93167 277.246 6.905 277.399 6.905C277.486 6.905 277.576 6.91167 277.669 6.925C277.763 6.93833 277.851 6.96 277.934 6.99L277.839 8.05C277.723 8.03 277.618 8.015 277.524 8.005C277.431 7.995 277.324 7.99 277.204 7.99C277.111 7.99 277.008 8.00333 276.894 8.03C276.781 8.05333 276.666 8.10333 276.549 8.18C276.436 8.25667 276.326 8.37167 276.219 8.525C276.116 8.675 276.024 8.87333 275.944 9.12V9.875C275.944 10.2583 275.944 10.6183 275.944 10.955C275.944 11.2883 275.944 11.6367 275.944 12H274.874ZM280.1 12.105C279.816 12.105 279.563 12.0483 279.34 11.935C279.116 11.8183 278.94 11.6517 278.81 11.435C278.683 11.215 278.62 10.9483 278.62 10.635C278.62 10.3583 278.666 10.1267 278.76 9.94C278.856 9.75 278.983 9.595 279.14 9.475C279.296 9.355 279.471 9.26167 279.665 9.195C279.858 9.12833 280.053 9.08 280.25 9.05L281.725 8.82C281.738 8.54333 281.696 8.33167 281.6 8.185C281.506 8.03833 281.373 7.93833 281.2 7.885C281.03 7.83167 280.836 7.805 280.62 7.805C280.506 7.805 280.383 7.81333 280.25 7.83C280.12 7.84667 279.981 7.875 279.835 7.915C279.691 7.95167 279.54 7.99833 279.38 8.055C279.223 8.10833 279.061 8.17333 278.895 8.25L278.835 7.3C278.958 7.25 279.096 7.20167 279.25 7.155C279.403 7.10833 279.568 7.06667 279.745 7.03C279.925 6.99 280.11 6.96 280.3 6.94C280.49 6.92 280.683 6.91 280.88 6.91C281.273 6.91 281.61 6.96833 281.89 7.085C282.17 7.20167 282.385 7.38833 282.535 7.645C282.685 7.89833 282.76 8.22833 282.76 8.635C282.76 8.795 282.76 8.99333 282.76 9.23C282.76 9.46667 282.76 9.68667 282.76 9.89V10.49C282.76 10.7267 282.76 10.9667 282.76 11.21C282.76 11.4533 282.76 11.7167 282.76 12H281.795L281.735 11.34H281.64C281.543 11.4633 281.421 11.5833 281.275 11.7C281.131 11.8167 280.96 11.9133 280.76 11.99C280.563 12.0667 280.343 12.105 280.1 12.105ZM280.45 11.255C280.61 11.255 280.766 11.22 280.92 11.15C281.076 11.0767 281.221 10.9733 281.355 10.84C281.488 10.7067 281.603 10.545 281.7 10.355V9.475C281.65 9.505 281.585 9.53333 281.505 9.56C281.428 9.58667 281.311 9.61667 281.155 9.65C280.998 9.68333 280.778 9.725 280.495 9.775C280.331 9.80167 280.191 9.85 280.075 9.92C279.958 9.99 279.866 10.0817 279.8 10.195C279.736 10.305 279.705 10.4367 279.705 10.59C279.705 10.8333 279.778 11.005 279.925 11.105C280.075 11.205 280.25 11.255 280.45 11.255ZM286.253 12.12C285.91 12.12 285.617 12.0633 285.373 11.95C285.133 11.8367 284.95 11.66 284.823 11.42C284.7 11.18 284.638 10.87 284.638 10.49C284.638 10.2267 284.638 9.96333 284.638 9.7C284.638 9.43333 284.638 9.16833 284.638 8.905C284.638 8.63833 284.638 8.37333 284.638 8.11C284.638 7.84667 284.638 7.58333 284.638 7.32C284.638 6.96667 284.638 6.64 284.638 6.34C284.638 6.04 284.638 5.73167 284.638 5.415L285.693 5.205C285.693 5.45833 285.693 5.69333 285.693 5.91C285.693 6.12667 285.693 6.34833 285.693 6.575C285.693 6.79833 285.693 7.04667 285.693 7.32V10.195C285.693 10.535 285.762 10.7917 285.898 10.965C286.035 11.135 286.248 11.22 286.538 11.22C286.658 11.22 286.787 11.2 286.923 11.16C287.063 11.1167 287.192 11.0517 287.308 10.965L287.383 11.865C287.307 11.915 287.208 11.96 287.088 12C286.972 12.0367 286.84 12.065 286.693 12.085C286.55 12.1083 286.403 12.12 286.253 12.12ZM283.733 7.855V7.03H287.343V7.855C287.017 7.855 286.688 7.855 286.358 7.855C286.028 7.855 285.707 7.855 285.393 7.855H284.938H283.733ZM288.544 12C288.544 11.6367 288.544 11.285 288.544 10.945C288.544 10.605 288.544 10.23 288.544 9.82V9.32C288.544 9.01333 288.544 8.73167 288.544 8.475C288.544 8.21833 288.544 7.97333 288.544 7.74C288.544 7.50667 288.544 7.27 288.544 7.03L289.614 6.995C289.614 7.23833 289.614 7.47833 289.614 7.715C289.614 7.95167 289.614 8.2 289.614 8.46C289.614 8.72 289.614 9.00667 289.614 9.32V9.82C289.614 10.23 289.614 10.605 289.614 10.945C289.614 11.285 289.614 11.6367 289.614 12H288.544ZM289.064 6.02C288.85 6.02 288.677 5.965 288.544 5.855C288.414 5.74167 288.349 5.565 288.349 5.325C288.349 5.10167 288.414 4.93167 288.544 4.815C288.677 4.69833 288.854 4.64 289.074 4.64C289.297 4.64 289.472 4.7 289.599 4.82C289.729 4.94 289.794 5.10833 289.794 5.325C289.794 5.565 289.729 5.74167 289.599 5.855C289.469 5.965 289.29 6.02 289.064 6.02ZM293.51 12.12C293.084 12.12 292.71 12.0483 292.39 11.905C292.07 11.7617 291.802 11.5683 291.585 11.325C291.372 11.0783 291.212 10.7983 291.105 10.485C290.999 10.1683 290.945 9.83667 290.945 9.49C290.945 8.99333 291.045 8.55167 291.245 8.165C291.445 7.775 291.735 7.46833 292.115 7.245C292.495 7.01833 292.954 6.905 293.49 6.905C293.9 6.905 294.264 6.97 294.58 7.1C294.897 7.23 295.162 7.41333 295.375 7.65C295.592 7.88333 295.755 8.15667 295.865 8.47C295.975 8.78333 296.03 9.12333 296.03 9.49C296.03 9.98667 295.93 10.4333 295.73 10.83C295.53 11.2267 295.24 11.5417 294.86 11.775C294.484 12.005 294.034 12.12 293.51 12.12ZM293.505 11.22C293.825 11.22 294.092 11.1383 294.305 10.975C294.519 10.8083 294.677 10.5933 294.78 10.33C294.887 10.0667 294.94 9.78667 294.94 9.49C294.94 9.14667 294.88 8.85 294.76 8.6C294.644 8.34667 294.477 8.15167 294.26 8.015C294.047 7.875 293.794 7.805 293.5 7.805C293.184 7.805 292.915 7.88 292.695 8.03C292.479 8.17667 292.314 8.37833 292.2 8.635C292.09 8.88833 292.035 9.17333 292.035 9.49C292.035 9.78667 292.089 10.0667 292.195 10.33C292.305 10.5933 292.469 10.8083 292.685 10.975C292.905 11.1383 293.179 11.22 293.505 11.22ZM297.347 12C297.347 11.6367 297.347 11.285 297.347 10.945C297.347 10.605 297.347 10.23 297.347 9.82V9.32C297.347 8.95 297.347 8.57333 297.347 8.19C297.347 7.80333 297.347 7.41667 297.347 7.03L298.262 6.97L298.302 7.87H298.407C298.514 7.71667 298.649 7.56667 298.812 7.42C298.979 7.27 299.172 7.14667 299.392 7.05C299.612 6.95333 299.864 6.905 300.147 6.905C300.664 6.905 301.045 7.055 301.292 7.355C301.542 7.655 301.667 8.095 301.667 8.675C301.667 8.89167 301.667 9.08833 301.667 9.265C301.667 9.43833 301.667 9.62333 301.667 9.82C301.667 10.22 301.667 10.5933 301.667 10.94C301.667 11.2833 301.667 11.6367 301.667 12H300.597C300.597 11.6367 300.597 11.285 300.597 10.945C300.597 10.6017 300.597 10.245 300.597 9.875V8.985C300.597 8.625 300.535 8.35333 300.412 8.17C300.289 7.98667 300.062 7.895 299.732 7.895C299.539 7.895 299.362 7.935 299.202 8.015C299.042 8.09167 298.897 8.19667 298.767 8.33C298.637 8.46 298.52 8.605 298.417 8.765V9.875C298.417 10.2583 298.417 10.6183 298.417 10.955C298.417 11.2883 298.417 11.6367 298.417 12H297.347ZM302.674 13.57C302.8 13.3833 302.902 13.1933 302.979 13C303.055 12.81 303.11 12.6083 303.144 12.395C303.177 12.185 303.194 11.9583 303.194 11.715C303.194 11.545 303.194 11.37 303.194 11.19C303.194 11.01 303.194 10.8283 303.194 10.645L303.709 10.605C303.925 10.625 304.082 10.7083 304.179 10.855C304.275 10.9983 304.324 11.1767 304.324 11.39C304.324 11.6067 304.292 11.82 304.229 12.03C304.169 12.24 304.085 12.44 303.979 12.63C303.872 12.82 303.754 12.9933 303.624 13.15C303.494 13.3067 303.36 13.4417 303.224 13.555L302.674 13.57ZM129.67 27C129.67 26.6367 129.67 26.285 129.67 25.945C129.67 25.605 129.67 25.23 129.67 24.82V22.065C129.67 21.6483 129.67 21.2417 129.67 20.845C129.67 20.4483 129.67 20.06 129.67 19.68L130.74 19.565C130.74 19.965 130.74 20.37 130.74 20.78C130.74 21.1867 130.74 21.615 130.74 22.065V24.82C130.74 25.23 130.74 25.605 130.74 25.945C130.74 26.285 130.74 26.6367 130.74 27H129.67ZM133.557 27.105C133.274 27.105 133.021 27.0483 132.797 26.935C132.574 26.8183 132.397 26.6517 132.267 26.435C132.141 26.215 132.077 25.9483 132.077 25.635C132.077 25.3583 132.124 25.1267 132.217 24.94C132.314 24.75 132.441 24.595 132.597 24.475C132.754 24.355 132.929 24.2617 133.122 24.195C133.316 24.1283 133.511 24.08 133.707 24.05L135.182 23.82C135.196 23.5433 135.154 23.3317 135.057 23.185C134.964 23.0383 134.831 22.9383 134.657 22.885C134.487 22.8317 134.294 22.805 134.077 22.805C133.964 22.805 133.841 22.8133 133.707 22.83C133.577 22.8467 133.439 22.875 133.292 22.915C133.149 22.9517 132.997 22.9983 132.837 23.055C132.681 23.1083 132.519 23.1733 132.352 23.25L132.292 22.3C132.416 22.25 132.554 22.2017 132.707 22.155C132.861 22.1083 133.026 22.0667 133.202 22.03C133.382 21.99 133.567 21.96 133.757 21.94C133.947 21.92 134.141 21.91 134.337 21.91C134.731 21.91 135.067 21.9683 135.347 22.085C135.627 22.2017 135.842 22.3883 135.992 22.645C136.142 22.8983 136.217 23.2283 136.217 23.635C136.217 23.795 136.217 23.9933 136.217 24.23C136.217 24.4667 136.217 24.6867 136.217 24.89V25.49C136.217 25.7267 136.217 25.9667 136.217 26.21C136.217 26.4533 136.217 26.7167 136.217 27H135.252L135.192 26.34H135.097C135.001 26.4633 134.879 26.5833 134.732 26.7C134.589 26.8167 134.417 26.9133 134.217 26.99C134.021 27.0667 133.801 27.105 133.557 27.105ZM133.907 26.255C134.067 26.255 134.224 26.22 134.377 26.15C134.534 26.0767 134.679 25.9733 134.812 25.84C134.946 25.7067 135.061 25.545 135.157 25.355V24.475C135.107 24.505 135.042 24.5333 134.962 24.56C134.886 24.5867 134.769 24.6167 134.612 24.65C134.456 24.6833 134.236 24.725 133.952 24.775C133.789 24.8017 133.649 24.85 133.532 24.92C133.416 24.99 133.324 25.0817 133.257 25.195C133.194 25.305 133.162 25.4367 133.162 25.59C133.162 25.8333 133.236 26.005 133.382 26.105C133.532 26.205 133.707 26.255 133.907 26.255ZM139.755 27C139.755 26.6367 139.755 26.285 139.755 25.945C139.755 25.605 139.755 25.23 139.755 24.82V24.32C139.755 23.95 139.755 23.5733 139.755 23.19C139.755 22.8033 139.755 22.4167 139.755 22.03L140.67 21.97L140.71 22.865H140.815C140.922 22.7117 141.053 22.5617 141.21 22.415C141.367 22.2683 141.55 22.1467 141.76 22.05C141.973 21.9533 142.215 21.905 142.485 21.905C142.885 21.905 143.192 22.005 143.405 22.205C143.622 22.4017 143.763 22.685 143.83 23.055L143.9 23.08C143.917 23.17 143.928 23.265 143.935 23.365C143.945 23.4617 143.95 23.565 143.95 23.675C143.95 23.8917 143.95 24.0883 143.95 24.265C143.95 24.4383 143.95 24.6233 143.95 24.82C143.95 25.22 143.95 25.5933 143.95 25.94C143.95 26.2833 143.95 26.6367 143.95 27H142.885C142.885 26.6367 142.885 26.285 142.885 25.945C142.885 25.6017 142.885 25.245 142.885 24.875V23.985C142.885 23.625 142.825 23.3533 142.705 23.17C142.588 22.9867 142.375 22.895 142.065 22.895C141.882 22.895 141.715 22.935 141.565 23.015C141.415 23.095 141.278 23.2017 141.155 23.335C141.032 23.465 140.922 23.6083 140.825 23.765V24.875C140.825 25.2583 140.825 25.6183 140.825 25.955C140.825 26.2883 140.825 26.6367 140.825 27H139.755ZM145.98 27C145.98 26.6367 145.98 26.285 145.98 25.945C145.98 25.6017 145.98 25.245 145.98 24.875V23.985C145.98 23.625 145.92 23.3533 145.8 23.17C145.683 22.9867 145.472 22.895 145.165 22.895C144.982 22.895 144.813 22.935 144.66 23.015C144.51 23.0917 144.373 23.1967 144.25 23.33C144.127 23.46 144.015 23.605 143.915 23.765L143.76 22.88H143.865C143.982 22.7233 144.12 22.57 144.28 22.42C144.443 22.27 144.633 22.1467 144.85 22.05C145.067 21.9533 145.312 21.905 145.585 21.905C146.095 21.905 146.467 22.0583 146.7 22.365C146.933 22.6717 147.05 23.1083 147.05 23.675C147.05 23.8917 147.05 24.0883 147.05 24.265C147.05 24.4383 147.05 24.6233 147.05 24.82C147.05 25.22 147.05 25.5933 147.05 25.94C147.05 26.2833 147.05 26.6367 147.05 27H145.98ZM150.911 27.115C150.301 27.115 149.799 27.0017 149.406 26.775C149.012 26.5483 148.721 26.2383 148.531 25.845C148.344 25.4517 148.251 25 148.251 24.49C148.251 23.9867 148.341 23.54 148.521 23.15C148.704 22.76 148.971 22.4567 149.321 22.24C149.671 22.02 150.094 21.91 150.591 21.91C151.021 21.91 151.391 21.9917 151.701 22.155C152.011 22.315 152.249 22.555 152.416 22.875C152.582 23.195 152.666 23.5917 152.666 24.065C152.666 24.1917 152.662 24.3067 152.656 24.41C152.652 24.51 152.642 24.61 152.626 24.71L151.691 24.3C151.697 24.25 151.702 24.2017 151.706 24.155C151.709 24.105 151.711 24.0583 151.711 24.015C151.711 23.605 151.607 23.2883 151.401 23.065C151.197 22.8383 150.931 22.725 150.601 22.725C150.344 22.725 150.121 22.795 149.931 22.935C149.741 23.075 149.592 23.2667 149.486 23.51C149.382 23.7533 149.331 24.0333 149.331 24.35V24.51C149.331 24.8633 149.391 25.1667 149.511 25.42C149.634 25.6733 149.821 25.8683 150.071 26.005C150.324 26.1417 150.642 26.21 151.026 26.21C151.172 26.21 151.332 26.1983 151.506 26.175C151.682 26.1483 151.859 26.1083 152.036 26.055C152.212 26.0017 152.379 25.9333 152.536 25.85L152.576 26.78C152.449 26.8467 152.301 26.905 152.131 26.955C151.961 27.005 151.772 27.0433 151.566 27.07C151.362 27.1 151.144 27.115 150.911 27.115ZM148.681 24.71V23.98L151.986 23.94L152.626 24.205V24.71H148.681ZM149.751 21.27C149.971 20.9333 150.191 20.5967 150.411 20.26C150.631 19.92 150.849 19.5833 151.066 19.25L152.216 19.22C152.029 19.4533 151.844 19.685 151.661 19.915C151.477 20.1417 151.296 20.3667 151.116 20.59C150.939 20.8133 150.761 21.0367 150.581 21.26L149.751 21.27ZM153.949 27C153.949 26.6367 153.949 26.285 153.949 25.945C153.949 25.605 153.949 25.23 153.949 24.82V24.32C153.949 23.95 153.949 23.5733 153.949 23.19C153.949 22.8033 153.949 22.4167 153.949 22.03L154.864 21.97L154.904 22.865H155.009C155.116 22.7117 155.248 22.5617 155.404 22.415C155.561 22.2683 155.744 22.1467 155.954 22.05C156.168 21.9533 156.409 21.905 156.679 21.905C157.079 21.905 157.386 22.005 157.599 22.205C157.816 22.4017 157.958 22.685 158.024 23.055L158.094 23.08C158.111 23.17 158.123 23.265 158.129 23.365C158.139 23.4617 158.144 23.565 158.144 23.675C158.144 23.8917 158.144 24.0883 158.144 24.265C158.144 24.4383 158.144 24.6233 158.144 24.82C158.144 25.22 158.144 25.5933 158.144 25.94C158.144 26.2833 158.144 26.6367 158.144 27H157.079C157.079 26.6367 157.079 26.285 157.079 25.945C157.079 25.6017 157.079 25.245 157.079 24.875V23.985C157.079 23.625 157.019 23.3533 156.899 23.17C156.783 22.9867 156.569 22.895 156.259 22.895C156.076 22.895 155.909 22.935 155.759 23.015C155.609 23.095 155.473 23.2017 155.349 23.335C155.226 23.465 155.116 23.6083 155.019 23.765V24.875C155.019 25.2583 155.019 25.6183 155.019 25.955C155.019 26.2883 155.019 26.6367 155.019 27H153.949ZM160.174 27C160.174 26.6367 160.174 26.285 160.174 25.945C160.174 25.6017 160.174 25.245 160.174 24.875V23.985C160.174 23.625 160.114 23.3533 159.994 23.17C159.878 22.9867 159.666 22.895 159.359 22.895C159.176 22.895 159.008 22.935 158.854 23.015C158.704 23.0917 158.568 23.1967 158.444 23.33C158.321 23.46 158.209 23.605 158.109 23.765L157.954 22.88H158.059C158.176 22.7233 158.314 22.57 158.474 22.42C158.638 22.27 158.828 22.1467 159.044 22.05C159.261 21.9533 159.506 21.905 159.779 21.905C160.289 21.905 160.661 22.0583 160.894 22.365C161.128 22.6717 161.244 23.1083 161.244 23.675C161.244 23.8917 161.244 24.0883 161.244 24.265C161.244 24.4383 161.244 24.6233 161.244 24.82C161.244 25.22 161.244 25.5933 161.244 25.94C161.244 26.2833 161.244 26.6367 161.244 27H160.174ZM165.01 27.12C164.583 27.12 164.21 27.0483 163.89 26.905C163.57 26.7617 163.302 26.5683 163.085 26.325C162.872 26.0783 162.712 25.7983 162.605 25.485C162.498 25.1683 162.445 24.8367 162.445 24.49C162.445 23.9933 162.545 23.5517 162.745 23.165C162.945 22.775 163.235 22.4683 163.615 22.245C163.995 22.0183 164.453 21.905 164.99 21.905C165.4 21.905 165.763 21.97 166.08 22.1C166.397 22.23 166.662 22.4133 166.875 22.65C167.092 22.8833 167.255 23.1567 167.365 23.47C167.475 23.7833 167.53 24.1233 167.53 24.49C167.53 24.9867 167.43 25.4333 167.23 25.83C167.03 26.2267 166.74 26.5417 166.36 26.775C165.983 27.005 165.533 27.12 165.01 27.12ZM165.005 26.22C165.325 26.22 165.592 26.1383 165.805 25.975C166.018 25.8083 166.177 25.5933 166.28 25.33C166.387 25.0667 166.44 24.7867 166.44 24.49C166.44 24.1467 166.38 23.85 166.26 23.6C166.143 23.3467 165.977 23.1517 165.76 23.015C165.547 22.875 165.293 22.805 165 22.805C164.683 22.805 164.415 22.88 164.195 23.03C163.978 23.1767 163.813 23.3783 163.7 23.635C163.59 23.8883 163.535 24.1733 163.535 24.49C163.535 24.7867 163.588 25.0667 163.695 25.33C163.805 25.5933 163.968 25.8083 164.185 25.975C164.405 26.1383 164.678 26.22 165.005 26.22ZM168.866 27C168.866 26.6367 168.866 26.285 168.866 25.945C168.866 25.605 168.866 25.23 168.866 24.82V24.32C168.866 24.0133 168.866 23.7317 168.866 23.475C168.866 23.2183 168.866 22.9733 168.866 22.74C168.866 22.5067 168.866 22.27 168.866 22.03L169.936 21.995C169.936 22.2383 169.936 22.4783 169.936 22.715C169.936 22.9517 169.936 23.2 169.936 23.46C169.936 23.72 169.936 24.0067 169.936 24.32V24.82C169.936 25.23 169.936 25.605 169.936 25.945C169.936 26.285 169.936 26.6367 169.936 27H168.866ZM169.386 21.02C169.173 21.02 169 20.965 168.866 20.855C168.736 20.7417 168.671 20.565 168.671 20.325C168.671 20.1017 168.736 19.9317 168.866 19.815C169 19.6983 169.176 19.64 169.396 19.64C169.62 19.64 169.795 19.7 169.921 19.82C170.051 19.94 170.116 20.1083 170.116 20.325C170.116 20.565 170.051 20.7417 169.921 20.855C169.791 20.965 169.613 21.02 169.386 21.02ZM171.593 27C171.593 26.6367 171.593 26.285 171.593 25.945C171.593 25.605 171.593 25.23 171.593 24.82V24.32C171.593 23.95 171.593 23.5733 171.593 23.19C171.593 22.8033 171.593 22.4167 171.593 22.03L172.508 21.97L172.548 22.95H172.648C172.781 22.6567 172.933 22.435 173.103 22.285C173.273 22.135 173.446 22.035 173.623 21.985C173.8 21.9317 173.965 21.905 174.118 21.905C174.205 21.905 174.295 21.9117 174.388 21.925C174.481 21.9383 174.57 21.96 174.653 21.99L174.558 23.05C174.441 23.03 174.336 23.015 174.243 23.005C174.15 22.995 174.043 22.99 173.923 22.99C173.83 22.99 173.726 23.0033 173.613 23.03C173.5 23.0533 173.385 23.1033 173.268 23.18C173.155 23.2567 173.045 23.3717 172.938 23.525C172.835 23.675 172.743 23.8733 172.663 24.12V24.875C172.663 25.2583 172.663 25.6183 172.663 25.955C172.663 26.2883 172.663 26.6367 172.663 27H171.593ZM177.915 27.115C177.305 27.115 176.803 27.0017 176.41 26.775C176.016 26.5483 175.725 26.2383 175.535 25.845C175.348 25.4517 175.255 25 175.255 24.49C175.255 23.9867 175.345 23.54 175.525 23.15C175.708 22.76 175.975 22.4567 176.325 22.24C176.675 22.02 177.098 21.91 177.595 21.91C178.025 21.91 178.395 21.9917 178.705 22.155C179.015 22.315 179.253 22.555 179.42 22.875C179.586 23.195 179.67 23.5917 179.67 24.065C179.67 24.1917 179.666 24.3067 179.66 24.41C179.656 24.51 179.646 24.61 179.63 24.71L178.695 24.3C178.701 24.25 178.706 24.2017 178.71 24.155C178.713 24.105 178.715 24.0583 178.715 24.015C178.715 23.605 178.611 23.2883 178.405 23.065C178.201 22.8383 177.935 22.725 177.605 22.725C177.348 22.725 177.125 22.795 176.935 22.935C176.745 23.075 176.596 23.2667 176.49 23.51C176.386 23.7533 176.335 24.0333 176.335 24.35V24.51C176.335 24.8633 176.395 25.1667 176.515 25.42C176.638 25.6733 176.825 25.8683 177.075 26.005C177.328 26.1417 177.646 26.21 178.03 26.21C178.176 26.21 178.336 26.1983 178.51 26.175C178.686 26.1483 178.863 26.1083 179.04 26.055C179.216 26.0017 179.383 25.9333 179.54 25.85L179.58 26.78C179.453 26.8467 179.305 26.905 179.135 26.955C178.965 27.005 178.776 27.0433 178.57 27.07C178.366 27.1 178.148 27.115 177.915 27.115ZM175.685 24.71V23.98L178.99 23.94L179.63 24.205V24.71H175.685ZM185.302 27.115C184.692 27.115 184.19 27.0017 183.797 26.775C183.404 26.5483 183.112 26.2383 182.922 25.845C182.735 25.4517 182.642 25 182.642 24.49C182.642 23.9867 182.732 23.54 182.912 23.15C183.095 22.76 183.362 22.4567 183.712 22.24C184.062 22.02 184.485 21.91 184.982 21.91C185.412 21.91 185.782 21.9917 186.092 22.155C186.402 22.315 186.64 22.555 186.807 22.875C186.974 23.195 187.057 23.5917 187.057 24.065C187.057 24.1917 187.054 24.3067 187.047 24.41C187.044 24.51 187.034 24.61 187.017 24.71L186.082 24.3C186.089 24.25 186.094 24.2017 186.097 24.155C186.1 24.105 186.102 24.0583 186.102 24.015C186.102 23.605 185.999 23.2883 185.792 23.065C185.589 22.8383 185.322 22.725 184.992 22.725C184.735 22.725 184.512 22.795 184.322 22.935C184.132 23.075 183.984 23.2667 183.877 23.51C183.774 23.7533 183.722 24.0333 183.722 24.35V24.51C183.722 24.8633 183.782 25.1667 183.902 25.42C184.025 25.6733 184.212 25.8683 184.462 26.005C184.715 26.1417 185.034 26.21 185.417 26.21C185.564 26.21 185.724 26.1983 185.897 26.175C186.074 26.1483 186.25 26.1083 186.427 26.055C186.604 26.0017 186.771 25.9333 186.927 25.85L186.967 26.78C186.841 26.8467 186.692 26.905 186.522 26.955C186.352 27.005 186.164 27.0433 185.957 27.07C185.754 27.1 185.536 27.115 185.302 27.115ZM183.072 24.71V23.98L186.377 23.94L187.017 24.205V24.71H183.072ZM190.252 27.12C189.909 27.12 189.615 27.0633 189.372 26.95C189.132 26.8367 188.949 26.66 188.822 26.42C188.699 26.18 188.637 25.87 188.637 25.49C188.637 25.2267 188.637 24.9633 188.637 24.7C188.637 24.4333 188.637 24.1683 188.637 23.905C188.637 23.6383 188.637 23.3733 188.637 23.11C188.637 22.8467 188.637 22.5833 188.637 22.32C188.637 21.9667 188.637 21.64 188.637 21.34C188.637 21.04 188.637 20.7317 188.637 20.415L189.692 20.205C189.692 20.4583 189.692 20.6933 189.692 20.91C189.692 21.1267 189.692 21.3483 189.692 21.575C189.692 21.7983 189.692 22.0467 189.692 22.32V25.195C189.692 25.535 189.76 25.7917 189.897 25.965C190.034 26.135 190.247 26.22 190.537 26.22C190.657 26.22 190.785 26.2 190.922 26.16C191.062 26.1167 191.19 26.0517 191.307 25.965L191.382 26.865C191.305 26.915 191.207 26.96 191.087 27C190.97 27.0367 190.839 27.065 190.692 27.085C190.549 27.1083 190.402 27.12 190.252 27.12ZM187.732 22.855V22.03H191.342V22.855C191.015 22.855 190.687 22.855 190.357 22.855C190.027 22.855 189.705 22.855 189.392 22.855H188.937H187.732ZM194.537 27C194.537 26.6367 194.537 26.285 194.537 25.945C194.537 25.605 194.537 25.23 194.537 24.82V22.065C194.537 21.6483 194.537 21.2417 194.537 20.845C194.537 20.4483 194.537 20.06 194.537 19.68L195.607 19.565C195.607 19.965 195.607 20.37 195.607 20.78C195.607 21.1867 195.607 21.615 195.607 22.065V24.82C195.607 25.23 195.607 25.605 195.607 25.945C195.607 26.285 195.607 26.6367 195.607 27H194.537ZM199.579 27.115C198.969 27.115 198.467 27.0017 198.074 26.775C197.681 26.5483 197.389 26.2383 197.199 25.845C197.012 25.4517 196.919 25 196.919 24.49C196.919 23.9867 197.009 23.54 197.189 23.15C197.372 22.76 197.639 22.4567 197.989 22.24C198.339 22.02 198.762 21.91 199.259 21.91C199.689 21.91 200.059 21.9917 200.369 22.155C200.679 22.315 200.917 22.555 201.084 22.875C201.251 23.195 201.334 23.5917 201.334 24.065C201.334 24.1917 201.331 24.3067 201.324 24.41C201.321 24.51 201.311 24.61 201.294 24.71L200.359 24.3C200.366 24.25 200.371 24.2017 200.374 24.155C200.377 24.105 200.379 24.0583 200.379 24.015C200.379 23.605 200.276 23.2883 200.069 23.065C199.866 22.8383 199.599 22.725 199.269 22.725C199.012 22.725 198.789 22.795 198.599 22.935C198.409 23.075 198.261 23.2667 198.154 23.51C198.051 23.7533 197.999 24.0333 197.999 24.35V24.51C197.999 24.8633 198.059 25.1667 198.179 25.42C198.302 25.6733 198.489 25.8683 198.739 26.005C198.992 26.1417 199.311 26.21 199.694 26.21C199.841 26.21 200.001 26.1983 200.174 26.175C200.351 26.1483 200.527 26.1083 200.704 26.055C200.881 26.0017 201.047 25.9333 201.204 25.85L201.244 26.78C201.117 26.8467 200.969 26.905 200.799 26.955C200.629 27.005 200.441 27.0433 200.234 27.07C200.031 27.1 199.812 27.115 199.579 27.115ZM197.349 24.71V23.98L200.654 23.94L201.294 24.205V24.71H197.349ZM204.093 27.115C203.876 27.115 203.661 27.1 203.448 27.07C203.238 27.04 203.039 26.9983 202.853 26.945C202.669 26.8883 202.508 26.8267 202.368 26.76L202.448 25.79C202.598 25.8767 202.761 25.9533 202.938 26.02C203.114 26.0833 203.298 26.1333 203.488 26.17C203.681 26.2033 203.874 26.22 204.068 26.22C204.228 26.22 204.374 26.205 204.508 26.175C204.644 26.1417 204.753 26.08 204.833 25.99C204.916 25.9 204.958 25.7667 204.958 25.59C204.958 25.4733 204.919 25.3767 204.843 25.3C204.766 25.2233 204.641 25.155 204.468 25.095C204.294 25.0317 204.058 24.9583 203.758 24.875C203.481 24.8017 203.239 24.71 203.033 24.6C202.829 24.49 202.671 24.3433 202.558 24.16C202.444 23.9767 202.388 23.735 202.388 23.435C202.388 22.9517 202.543 22.5767 202.853 22.31C203.163 22.0433 203.578 21.91 204.098 21.91C204.318 21.91 204.531 21.9283 204.738 21.965C204.944 21.9983 205.133 22.0433 205.303 22.1C205.476 22.1533 205.623 22.21 205.743 22.27L205.658 23.24C205.504 23.1433 205.338 23.0633 205.158 23C204.981 22.9333 204.811 22.885 204.648 22.855C204.484 22.8217 204.346 22.805 204.233 22.805C204.103 22.805 203.979 22.8233 203.863 22.86C203.749 22.8933 203.658 22.9533 203.588 23.04C203.518 23.1233 203.483 23.2367 203.483 23.38C203.483 23.4933 203.509 23.59 203.563 23.67C203.616 23.75 203.713 23.8233 203.853 23.89C203.996 23.9567 204.203 24.0267 204.473 24.1C204.809 24.1967 205.094 24.2983 205.328 24.405C205.564 24.5117 205.743 24.6517 205.863 24.825C205.983 24.9983 206.043 25.2383 206.043 25.545C206.043 25.8517 205.976 26.1233 205.843 26.36C205.709 26.5967 205.499 26.7817 205.213 26.915C204.926 27.0483 204.553 27.115 204.093 27.115ZM209.671 27C209.671 26.6367 209.671 26.285 209.671 25.945C209.671 25.605 209.671 25.23 209.671 24.82V24.32C209.671 24.12 209.671 23.9067 209.671 23.68C209.671 23.45 209.671 23.2133 209.671 22.97C209.671 22.7233 209.671 22.4717 209.671 22.215C209.671 21.9583 209.671 21.7 209.671 21.44C209.671 21.07 209.721 20.7633 209.821 20.52C209.921 20.2733 210.058 20.08 210.231 19.94C210.408 19.7967 210.61 19.695 210.836 19.635C211.063 19.5717 211.303 19.54 211.556 19.54C211.686 19.54 211.813 19.5467 211.936 19.56C212.06 19.57 212.171 19.5867 212.271 19.61C212.371 19.6333 212.455 19.6567 212.521 19.68L212.436 20.58C212.323 20.54 212.205 20.5083 212.081 20.485C211.961 20.4617 211.836 20.45 211.706 20.45C211.36 20.45 211.105 20.5333 210.941 20.7C210.781 20.8667 210.701 21.12 210.701 21.46C210.701 21.55 210.701 21.6533 210.701 21.77C210.701 21.8867 210.701 21.9733 210.701 22.03L210.741 22.24V24.82C210.741 25.23 210.741 25.605 210.741 25.945C210.741 26.285 210.741 26.6367 210.741 27H209.671ZM208.771 22.855V22.03H212.311V22.855C211.985 22.855 211.668 22.855 211.361 22.855C211.055 22.855 210.745 22.855 210.431 22.855H209.976H208.771ZM213.425 27C213.425 26.6367 213.425 26.285 213.425 25.945C213.425 25.605 213.425 25.23 213.425 24.82V24.32C213.425 23.95 213.425 23.5733 213.425 23.19C213.425 22.8033 213.425 22.4167 213.425 22.03L214.34 21.97L214.38 22.95H214.48C214.614 22.6567 214.765 22.435 214.935 22.285C215.105 22.135 215.279 22.035 215.455 21.985C215.632 21.9317 215.797 21.905 215.95 21.905C216.037 21.905 216.127 21.9117 216.22 21.925C216.314 21.9383 216.402 21.96 216.485 21.99L216.39 23.05C216.274 23.03 216.169 23.015 216.075 23.005C215.982 22.995 215.875 22.99 215.755 22.99C215.662 22.99 215.559 23.0033 215.445 23.03C215.332 23.0533 215.217 23.1033 215.1 23.18C214.987 23.2567 214.877 23.3717 214.77 23.525C214.667 23.675 214.575 23.8733 214.495 24.12V24.875C214.495 25.2583 214.495 25.6183 214.495 25.955C214.495 26.2883 214.495 26.6367 214.495 27H213.425ZM219.652 27.12C219.225 27.12 218.852 27.0483 218.532 26.905C218.212 26.7617 217.944 26.5683 217.727 26.325C217.514 26.0783 217.354 25.7983 217.247 25.485C217.14 25.1683 217.087 24.8367 217.087 24.49C217.087 23.9933 217.187 23.5517 217.387 23.165C217.587 22.775 217.877 22.4683 218.257 22.245C218.637 22.0183 219.095 21.905 219.632 21.905C220.042 21.905 220.405 21.97 220.722 22.1C221.039 22.23 221.304 22.4133 221.517 22.65C221.734 22.8833 221.897 23.1567 222.007 23.47C222.117 23.7833 222.172 24.1233 222.172 24.49C222.172 24.9867 222.072 25.4333 221.872 25.83C221.672 26.2267 221.382 26.5417 221.002 26.775C220.625 27.005 220.175 27.12 219.652 27.12ZM219.647 26.22C219.967 26.22 220.234 26.1383 220.447 25.975C220.66 25.8083 220.819 25.5933 220.922 25.33C221.029 25.0667 221.082 24.7867 221.082 24.49C221.082 24.1467 221.022 23.85 220.902 23.6C220.785 23.3467 220.619 23.1517 220.402 23.015C220.189 22.875 219.935 22.805 219.642 22.805C219.325 22.805 219.057 22.88 218.837 23.03C218.62 23.1767 218.455 23.3783 218.342 23.635C218.232 23.8883 218.177 24.1733 218.177 24.49C218.177 24.7867 218.23 25.0667 218.337 25.33C218.447 25.5933 218.61 25.8083 218.827 25.975C219.047 26.1383 219.32 26.22 219.647 26.22ZM223.489 27C223.489 26.6367 223.489 26.285 223.489 25.945C223.489 25.605 223.489 25.23 223.489 24.82V24.32C223.489 23.95 223.489 23.5733 223.489 23.19C223.489 22.8033 223.489 22.4167 223.489 22.03L224.404 21.97L224.444 22.87H224.549C224.655 22.7167 224.79 22.5667 224.954 22.42C225.12 22.27 225.314 22.1467 225.534 22.05C225.754 21.9533 226.005 21.905 226.289 21.905C226.805 21.905 227.187 22.055 227.434 22.355C227.684 22.655 227.809 23.095 227.809 23.675C227.809 23.8917 227.809 24.0883 227.809 24.265C227.809 24.4383 227.809 24.6233 227.809 24.82C227.809 25.22 227.809 25.5933 227.809 25.94C227.809 26.2833 227.809 26.6367 227.809 27H226.739C226.739 26.6367 226.739 26.285 226.739 25.945C226.739 25.6017 226.739 25.245 226.739 24.875V23.985C226.739 23.625 226.677 23.3533 226.554 23.17C226.43 22.9867 226.204 22.895 225.874 22.895C225.68 22.895 225.504 22.935 225.344 23.015C225.184 23.0917 225.039 23.1967 224.909 23.33C224.779 23.46 224.662 23.605 224.559 23.765V24.875C224.559 25.2583 224.559 25.6183 224.559 25.955C224.559 26.2883 224.559 26.6367 224.559 27H223.489ZM231.311 27.12C230.967 27.12 230.674 27.0633 230.431 26.95C230.191 26.8367 230.007 26.66 229.881 26.42C229.757 26.18 229.696 25.87 229.696 25.49C229.696 25.2267 229.696 24.9633 229.696 24.7C229.696 24.4333 229.696 24.1683 229.696 23.905C229.696 23.6383 229.696 23.3733 229.696 23.11C229.696 22.8467 229.696 22.5833 229.696 22.32C229.696 21.9667 229.696 21.64 229.696 21.34C229.696 21.04 229.696 20.7317 229.696 20.415L230.751 20.205C230.751 20.4583 230.751 20.6933 230.751 20.91C230.751 21.1267 230.751 21.3483 230.751 21.575C230.751 21.7983 230.751 22.0467 230.751 22.32V25.195C230.751 25.535 230.819 25.7917 230.956 25.965C231.092 26.135 231.306 26.22 231.596 26.22C231.716 26.22 231.844 26.2 231.981 26.16C232.121 26.1167 232.249 26.0517 232.366 25.965L232.441 26.865C232.364 26.915 232.266 26.96 232.146 27C232.029 27.0367 231.897 27.065 231.751 27.085C231.607 27.1083 231.461 27.12 231.311 27.12ZM228.791 22.855V22.03H232.401V22.855C232.074 22.855 231.746 22.855 231.416 22.855C231.086 22.855 230.764 22.855 230.451 22.855H229.996H228.791ZM233.601 27C233.601 26.6367 233.601 26.285 233.601 25.945C233.601 25.605 233.601 25.23 233.601 24.82V24.32C233.601 24.0133 233.601 23.7317 233.601 23.475C233.601 23.2183 233.601 22.9733 233.601 22.74C233.601 22.5067 233.601 22.27 233.601 22.03L234.671 21.995C234.671 22.2383 234.671 22.4783 234.671 22.715C234.671 22.9517 234.671 23.2 234.671 23.46C234.671 23.72 234.671 24.0067 234.671 24.32V24.82C234.671 25.23 234.671 25.605 234.671 25.945C234.671 26.285 234.671 26.6367 234.671 27H233.601ZM234.121 21.02C233.908 21.02 233.735 20.965 233.601 20.855C233.471 20.7417 233.406 20.565 233.406 20.325C233.406 20.1017 233.471 19.9317 233.601 19.815C233.735 19.6983 233.911 19.64 234.131 19.64C234.355 19.64 234.53 19.7 234.656 19.82C234.786 19.94 234.851 20.1083 234.851 20.325C234.851 20.565 234.786 20.7417 234.656 20.855C234.526 20.965 234.348 21.02 234.121 21.02ZM238.663 27.115C238.053 27.115 237.551 27.0017 237.158 26.775C236.764 26.5483 236.473 26.2383 236.283 25.845C236.096 25.4517 236.003 25 236.003 24.49C236.003 23.9867 236.093 23.54 236.273 23.15C236.456 22.76 236.723 22.4567 237.073 22.24C237.423 22.02 237.846 21.91 238.343 21.91C238.773 21.91 239.143 21.9917 239.453 22.155C239.763 22.315 240.001 22.555 240.168 22.875C240.334 23.195 240.418 23.5917 240.418 24.065C240.418 24.1917 240.414 24.3067 240.408 24.41C240.404 24.51 240.394 24.61 240.378 24.71L239.443 24.3C239.449 24.25 239.454 24.2017 239.458 24.155C239.461 24.105 239.463 24.0583 239.463 24.015C239.463 23.605 239.359 23.2883 239.153 23.065C238.949 22.8383 238.683 22.725 238.353 22.725C238.096 22.725 237.873 22.795 237.683 22.935C237.493 23.075 237.344 23.2667 237.238 23.51C237.134 23.7533 237.083 24.0333 237.083 24.35V24.51C237.083 24.8633 237.143 25.1667 237.263 25.42C237.386 25.6733 237.573 25.8683 237.823 26.005C238.076 26.1417 238.394 26.21 238.778 26.21C238.924 26.21 239.084 26.1983 239.258 26.175C239.434 26.1483 239.611 26.1083 239.788 26.055C239.964 26.0017 240.131 25.9333 240.288 25.85L240.328 26.78C240.201 26.8467 240.053 26.905 239.883 26.955C239.713 27.005 239.524 27.0433 239.318 27.07C239.114 27.1 238.896 27.115 238.663 27.115ZM236.433 24.71V23.98L239.738 23.94L240.378 24.205V24.71H236.433ZM238.323 21.27C238.146 21.05 237.966 20.8283 237.783 20.605C237.603 20.3817 237.421 20.1567 237.238 19.93C237.058 19.7033 236.874 19.4767 236.688 19.25L237.833 19.22C238.053 19.56 238.273 19.8983 238.493 20.235C238.713 20.5717 238.933 20.9133 239.153 21.26L238.323 21.27ZM241.701 27C241.701 26.6367 241.701 26.285 241.701 25.945C241.701 25.605 241.701 25.23 241.701 24.82V24.32C241.701 23.95 241.701 23.5733 241.701 23.19C241.701 22.8033 241.701 22.4167 241.701 22.03L242.616 21.97L242.656 22.95H242.756C242.889 22.6567 243.041 22.435 243.211 22.285C243.381 22.135 243.554 22.035 243.731 21.985C243.908 21.9317 244.073 21.905 244.226 21.905C244.313 21.905 244.403 21.9117 244.496 21.925C244.589 21.9383 244.678 21.96 244.761 21.99L244.666 23.05C244.549 23.03 244.444 23.015 244.351 23.005C244.258 22.995 244.151 22.99 244.031 22.99C243.938 22.99 243.834 23.0033 243.721 23.03C243.608 23.0533 243.493 23.1033 243.376 23.18C243.263 23.2567 243.153 23.3717 243.046 23.525C242.943 23.675 242.851 23.8733 242.771 24.12V24.875C242.771 25.2583 242.771 25.6183 242.771 25.955C242.771 26.2883 242.771 26.6367 242.771 27H241.701ZM248.023 27.115C247.413 27.115 246.911 27.0017 246.518 26.775C246.125 26.5483 245.833 26.2383 245.643 25.845C245.456 25.4517 245.363 25 245.363 24.49C245.363 23.9867 245.453 23.54 245.633 23.15C245.816 22.76 246.083 22.4567 246.433 22.24C246.783 22.02 247.206 21.91 247.703 21.91C248.133 21.91 248.503 21.9917 248.813 22.155C249.123 22.315 249.361 22.555 249.528 22.875C249.695 23.195 249.778 23.5917 249.778 24.065C249.778 24.1917 249.775 24.3067 249.768 24.41C249.765 24.51 249.755 24.61 249.738 24.71L248.803 24.3C248.81 24.25 248.815 24.2017 248.818 24.155C248.821 24.105 248.823 24.0583 248.823 24.015C248.823 23.605 248.72 23.2883 248.513 23.065C248.31 22.8383 248.043 22.725 247.713 22.725C247.456 22.725 247.233 22.795 247.043 22.935C246.853 23.075 246.705 23.2667 246.598 23.51C246.495 23.7533 246.443 24.0333 246.443 24.35V24.51C246.443 24.8633 246.503 25.1667 246.623 25.42C246.746 25.6733 246.933 25.8683 247.183 26.005C247.436 26.1417 247.755 26.21 248.138 26.21C248.285 26.21 248.445 26.1983 248.618 26.175C248.795 26.1483 248.971 26.1083 249.148 26.055C249.325 26.0017 249.491 25.9333 249.648 25.85L249.688 26.78C249.561 26.8467 249.413 26.905 249.243 26.955C249.073 27.005 248.885 27.0433 248.678 27.07C248.475 27.1 248.256 27.115 248.023 27.115ZM245.793 24.71V23.98L249.098 23.94L249.738 24.205V24.71H245.793ZM252.536 27.115C252.32 27.115 252.105 27.1 251.891 27.07C251.681 27.04 251.483 26.9983 251.296 26.945C251.113 26.8883 250.951 26.8267 250.811 26.76L250.891 25.79C251.041 25.8767 251.205 25.9533 251.381 26.02C251.558 26.0833 251.741 26.1333 251.931 26.17C252.125 26.2033 252.318 26.22 252.511 26.22C252.671 26.22 252.818 26.205 252.951 26.175C253.088 26.1417 253.196 26.08 253.276 25.99C253.36 25.9 253.401 25.7667 253.401 25.59C253.401 25.4733 253.363 25.3767 253.286 25.3C253.21 25.2233 253.085 25.155 252.911 25.095C252.738 25.0317 252.501 24.9583 252.201 24.875C251.925 24.8017 251.683 24.71 251.476 24.6C251.273 24.49 251.115 24.3433 251.001 24.16C250.888 23.9767 250.831 23.735 250.831 23.435C250.831 22.9517 250.986 22.5767 251.296 22.31C251.606 22.0433 252.021 21.91 252.541 21.91C252.761 21.91 252.975 21.9283 253.181 21.965C253.388 21.9983 253.576 22.0433 253.746 22.1C253.92 22.1533 254.066 22.21 254.186 22.27L254.101 23.24C253.948 23.1433 253.781 23.0633 253.601 23C253.425 22.9333 253.255 22.885 253.091 22.855C252.928 22.8217 252.79 22.805 252.676 22.805C252.546 22.805 252.423 22.8233 252.306 22.86C252.193 22.8933 252.101 22.9533 252.031 23.04C251.961 23.1233 251.926 23.2367 251.926 23.38C251.926 23.4933 251.953 23.59 252.006 23.67C252.06 23.75 252.156 23.8233 252.296 23.89C252.44 23.9567 252.646 24.0267 252.916 24.1C253.253 24.1967 253.538 24.2983 253.771 24.405C254.008 24.5117 254.186 24.6517 254.306 24.825C254.426 24.9983 254.486 25.2383 254.486 25.545C254.486 25.8517 254.42 26.1233 254.286 26.36C254.153 26.5967 253.943 26.7817 253.656 26.915C253.37 27.0483 252.996 27.115 252.536 27.115ZM259.525 27.12C259.059 27.12 258.67 26.9983 258.36 26.755C258.054 26.5117 257.824 26.1917 257.67 25.795C257.52 25.395 257.445 24.9633 257.445 24.5C257.445 24.01 257.525 23.5683 257.685 23.175C257.849 22.7817 258.087 22.4717 258.4 22.245C258.714 22.0183 259.094 21.905 259.54 21.905C259.757 21.905 259.957 21.9333 260.14 21.99C260.324 22.0467 260.485 22.125 260.625 22.225C260.765 22.325 260.882 22.4383 260.975 22.565H261.075V22.065C261.075 21.6483 261.075 21.2433 261.075 20.85C261.075 20.4533 261.075 20.0633 261.075 19.68L262.145 19.565C262.145 19.965 262.145 20.37 262.145 20.78C262.145 21.1867 262.145 21.615 262.145 22.065V24.82C262.145 25.23 262.145 25.605 262.145 25.945C262.145 26.285 262.145 26.6367 262.145 27H261.225L261.165 26.33H261.075C260.949 26.5 260.807 26.6433 260.65 26.76C260.497 26.8767 260.327 26.965 260.14 27.025C259.954 27.0883 259.749 27.12 259.525 27.12ZM259.89 26.185C260.07 26.185 260.234 26.1567 260.38 26.1C260.527 26.04 260.657 25.9567 260.77 25.85C260.887 25.7433 260.989 25.6167 261.075 25.47V23.45C260.985 23.3167 260.879 23.2067 260.755 23.12C260.632 23.03 260.497 22.9633 260.35 22.92C260.204 22.8733 260.054 22.85 259.9 22.85C259.594 22.85 259.34 22.925 259.14 23.075C258.94 23.225 258.79 23.4267 258.69 23.68C258.59 23.93 258.54 24.2067 258.54 24.51C258.54 24.8 258.587 25.0733 258.68 25.33C258.777 25.5833 258.924 25.79 259.12 25.95C259.32 26.1067 259.577 26.185 259.89 26.185ZM266.001 27.115C265.391 27.115 264.889 27.0017 264.496 26.775C264.103 26.5483 263.811 26.2383 263.621 25.845C263.434 25.4517 263.341 25 263.341 24.49C263.341 23.9867 263.431 23.54 263.611 23.15C263.794 22.76 264.061 22.4567 264.411 22.24C264.761 22.02 265.184 21.91 265.681 21.91C266.111 21.91 266.481 21.9917 266.791 22.155C267.101 22.315 267.339 22.555 267.506 22.875C267.673 23.195 267.756 23.5917 267.756 24.065C267.756 24.1917 267.753 24.3067 267.746 24.41C267.743 24.51 267.733 24.61 267.716 24.71L266.781 24.3C266.788 24.25 266.793 24.2017 266.796 24.155C266.799 24.105 266.801 24.0583 266.801 24.015C266.801 23.605 266.698 23.2883 266.491 23.065C266.288 22.8383 266.021 22.725 265.691 22.725C265.434 22.725 265.211 22.795 265.021 22.935C264.831 23.075 264.683 23.2667 264.576 23.51C264.473 23.7533 264.421 24.0333 264.421 24.35V24.51C264.421 24.8633 264.481 25.1667 264.601 25.42C264.724 25.6733 264.911 25.8683 265.161 26.005C265.414 26.1417 265.733 26.21 266.116 26.21C266.263 26.21 266.423 26.1983 266.596 26.175C266.773 26.1483 266.949 26.1083 267.126 26.055C267.303 26.0017 267.469 25.9333 267.626 25.85L267.666 26.78C267.539 26.8467 267.391 26.905 267.221 26.955C267.051 27.005 266.863 27.0433 266.656 27.07C266.453 27.1 266.234 27.115 266.001 27.115ZM263.771 24.71V23.98L267.076 23.94L267.716 24.205V24.71H263.771ZM271.053 27C271.053 26.6367 271.053 26.285 271.053 25.945C271.053 25.605 271.053 25.23 271.053 24.82V22.065C271.053 21.6483 271.053 21.2417 271.053 20.845C271.053 20.4483 271.053 20.06 271.053 19.68L272.123 19.565C272.123 19.965 272.123 20.37 272.123 20.78C272.123 21.1867 272.123 21.615 272.123 22.065V24.82C272.123 25.23 272.123 25.605 272.123 25.945C272.123 26.285 272.123 26.6367 272.123 27H271.053ZM273.236 22.505C273.363 22.3183 273.464 22.13 273.541 21.94C273.618 21.7467 273.673 21.545 273.706 21.335C273.739 21.1217 273.756 20.8933 273.756 20.65C273.756 20.48 273.756 20.305 273.756 20.125C273.756 19.945 273.756 19.7633 273.756 19.58L274.271 19.54C274.488 19.56 274.644 19.6433 274.741 19.79C274.838 19.9333 274.886 20.1117 274.886 20.325C274.886 20.5417 274.854 20.755 274.791 20.965C274.731 21.175 274.648 21.375 274.541 21.565C274.434 21.755 274.316 21.9283 274.186 22.085C274.056 22.2417 273.923 22.3767 273.786 22.49L273.236 22.505ZM276.304 27C276.304 26.6067 276.304 26.2283 276.304 25.865C276.304 25.5017 276.304 25.0983 276.304 24.655V22.25C276.304 21.8033 276.304 21.3933 276.304 21.02C276.304 20.6467 276.304 20.2633 276.304 19.87H280.844V20.86C280.521 20.86 280.174 20.86 279.804 20.86C279.434 20.86 278.997 20.86 278.494 20.86H276.799L277.454 20.05C277.454 20.4433 277.454 20.8267 277.454 21.2C277.454 21.57 277.454 21.98 277.454 22.43V24.475C277.454 24.915 277.454 25.3183 277.454 25.685C277.454 26.0483 277.454 26.4267 277.454 26.82L276.869 26.01H278.589C279.009 26.01 279.407 26.01 279.784 26.01C280.161 26.01 280.522 26.01 280.869 26.01V27H276.304ZM277.194 23.87V22.915H278.549C279.002 22.915 279.391 22.915 279.714 22.915C280.041 22.915 280.356 22.915 280.659 22.915V23.87C280.342 23.87 280.021 23.87 279.694 23.87C279.371 23.87 278.987 23.87 278.544 23.87H277.194ZM283.691 27.12C283.175 27.12 282.791 26.97 282.541 26.67C282.295 26.3667 282.171 25.925 282.171 25.345C282.171 25.125 282.171 24.9333 282.171 24.77C282.171 24.6067 282.171 24.4433 282.171 24.28C282.171 23.9733 282.171 23.695 282.171 23.445C282.171 23.195 282.171 22.9567 282.171 22.73C282.171 22.5033 282.171 22.27 282.171 22.03L283.241 21.99C283.241 22.3533 283.241 22.71 283.241 23.06C283.241 23.41 283.241 23.7767 283.241 24.16V25.06C283.241 25.4167 283.303 25.6867 283.426 25.87C283.553 26.0533 283.78 26.145 284.106 26.145C284.29 26.145 284.46 26.1067 284.616 26.03C284.773 25.95 284.915 25.845 285.041 25.715C285.171 25.5817 285.288 25.435 285.391 25.275V24.16C285.391 23.7767 285.391 23.4167 285.391 23.08C285.391 22.74 285.391 22.39 285.391 22.03H286.461C286.461 22.39 286.461 22.745 286.461 23.095C286.461 23.4417 286.461 23.8367 286.461 24.28V24.82C286.461 25.23 286.461 25.605 286.461 25.945C286.461 26.285 286.461 26.6367 286.461 27H285.546L285.506 26.15H285.401C285.295 26.3067 285.16 26.46 284.996 26.61C284.833 26.7567 284.643 26.8783 284.426 26.975C284.21 27.0717 283.965 27.12 283.691 27.12ZM288.016 27C288.016 26.6367 288.016 26.285 288.016 25.945C288.016 25.605 288.016 25.23 288.016 24.82V24.32C288.016 23.95 288.016 23.5733 288.016 23.19C288.016 22.8033 288.016 22.4167 288.016 22.03L288.931 21.97L288.971 22.95H289.071C289.204 22.6567 289.356 22.435 289.526 22.285C289.696 22.135 289.869 22.035 290.046 21.985C290.223 21.9317 290.388 21.905 290.541 21.905C290.628 21.905 290.718 21.9117 290.811 21.925C290.904 21.9383 290.993 21.96 291.076 21.99L290.981 23.05C290.864 23.03 290.759 23.015 290.666 23.005C290.573 22.995 290.466 22.99 290.346 22.99C290.253 22.99 290.149 23.0033 290.036 23.03C289.923 23.0533 289.808 23.1033 289.691 23.18C289.578 23.2567 289.468 23.3717 289.361 23.525C289.258 23.675 289.166 23.8733 289.086 24.12V24.875C289.086 25.2583 289.086 25.6183 289.086 25.955C289.086 26.2883 289.086 26.6367 289.086 27H288.016ZM294.243 27.12C293.816 27.12 293.443 27.0483 293.123 26.905C292.803 26.7617 292.534 26.5683 292.318 26.325C292.104 26.0783 291.944 25.7983 291.838 25.485C291.731 25.1683 291.678 24.8367 291.678 24.49C291.678 23.9933 291.778 23.5517 291.978 23.165C292.178 22.775 292.468 22.4683 292.848 22.245C293.228 22.0183 293.686 21.905 294.223 21.905C294.633 21.905 294.996 21.97 295.313 22.1C295.629 22.23 295.894 22.4133 296.108 22.65C296.324 22.8833 296.488 23.1567 296.598 23.47C296.708 23.7833 296.763 24.1233 296.763 24.49C296.763 24.9867 296.663 25.4333 296.463 25.83C296.263 26.2267 295.973 26.5417 295.593 26.775C295.216 27.005 294.766 27.12 294.243 27.12ZM294.238 26.22C294.558 26.22 294.824 26.1383 295.038 25.975C295.251 25.8083 295.409 25.5933 295.513 25.33C295.619 25.0667 295.673 24.7867 295.673 24.49C295.673 24.1467 295.613 23.85 295.493 23.6C295.376 23.3467 295.209 23.1517 294.993 23.015C294.779 22.875 294.526 22.805 294.233 22.805C293.916 22.805 293.648 22.88 293.428 23.03C293.211 23.1767 293.046 23.3783 292.933 23.635C292.823 23.8883 292.768 24.1733 292.768 24.49C292.768 24.7867 292.821 25.0667 292.928 25.33C293.038 25.5933 293.201 25.8083 293.418 25.975C293.638 26.1383 293.911 26.22 294.238 26.22ZM298.079 28.955C298.079 28.5917 298.079 28.2333 298.079 27.88C298.079 27.53 298.079 27.15 298.079 26.74V24.32C298.079 23.95 298.079 23.5733 298.079 23.19C298.079 22.8033 298.079 22.4167 298.079 22.03L299.039 21.97L299.069 22.63H299.169C299.266 22.49 299.389 22.365 299.539 22.255C299.689 22.145 299.859 22.06 300.049 22C300.243 21.9367 300.453 21.905 300.679 21.905C301.129 21.905 301.509 22.0183 301.819 22.245C302.133 22.4717 302.369 22.7817 302.529 23.175C302.693 23.5683 302.774 24.01 302.774 24.5C302.774 24.9633 302.698 25.395 302.544 25.795C302.394 26.1917 302.166 26.5117 301.859 26.755C301.553 26.9983 301.166 27.12 300.699 27.12C300.483 27.12 300.284 27.0917 300.104 27.035C299.928 26.9783 299.766 26.8967 299.619 26.79C299.476 26.6833 299.346 26.555 299.229 26.405H299.149V26.795C299.149 27.1783 299.149 27.5367 299.149 27.87C299.149 28.2067 299.149 28.5567 299.149 28.92L298.079 28.955ZM300.334 26.185C300.644 26.185 300.899 26.1067 301.099 25.95C301.299 25.79 301.446 25.5833 301.539 25.33C301.633 25.0733 301.679 24.8 301.679 24.51C301.679 24.2067 301.629 23.93 301.529 23.68C301.433 23.4267 301.284 23.225 301.084 23.075C300.884 22.925 300.629 22.85 300.319 22.85C300.166 22.85 300.016 22.8733 299.869 22.92C299.726 22.9633 299.593 23.03 299.469 23.12C299.346 23.2067 299.239 23.3167 299.149 23.45V25.47C299.236 25.6167 299.336 25.7433 299.449 25.85C299.563 25.9567 299.693 26.04 299.839 26.1C299.986 26.1567 300.151 26.185 300.334 26.185ZM306.432 27.115C305.822 27.115 305.321 27.0017 304.927 26.775C304.534 26.5483 304.242 26.2383 304.052 25.845C303.866 25.4517 303.772 25 303.772 24.49C303.772 23.9867 303.862 23.54 304.042 23.15C304.226 22.76 304.492 22.4567 304.842 22.24C305.192 22.02 305.616 21.91 306.112 21.91C306.542 21.91 306.912 21.9917 307.222 22.155C307.532 22.315 307.771 22.555 307.937 22.875C308.104 23.195 308.187 23.5917 308.187 24.065C308.187 24.1917 308.184 24.3067 308.177 24.41C308.174 24.51 308.164 24.61 308.147 24.71L307.212 24.3C307.219 24.25 307.224 24.2017 307.227 24.155C307.231 24.105 307.232 24.0583 307.232 24.015C307.232 23.605 307.129 23.2883 306.922 23.065C306.719 22.8383 306.452 22.725 306.122 22.725C305.866 22.725 305.642 22.795 305.452 22.935C305.262 23.075 305.114 23.2667 305.007 23.51C304.904 23.7533 304.852 24.0333 304.852 24.35V24.51C304.852 24.8633 304.912 25.1667 305.032 25.42C305.156 25.6733 305.342 25.8683 305.592 26.005C305.846 26.1417 306.164 26.21 306.547 26.21C306.694 26.21 306.854 26.1983 307.027 26.175C307.204 26.1483 307.381 26.1083 307.557 26.055C307.734 26.0017 307.901 25.9333 308.057 25.85L308.097 26.78C307.971 26.8467 307.822 26.905 307.652 26.955C307.482 27.005 307.294 27.0433 307.087 27.07C306.884 27.1 306.666 27.115 306.432 27.115ZM304.202 24.71V23.98L307.507 23.94L308.147 24.205V24.71H304.202Z" fill="#F6F6F6"/>
</svg>
