<svg width="101" height="26" viewBox="0 0 101 26" fill="none" xmlns="http://www.w3.org/2000/svg">
<path d="M10.1351 20.8808C10.1351 24.2038 8.24322 26 5.09008 26C1.93693 26 0 24.1589 0 20.8808V5.11917C0.0450449 1.8411 1.93693 0 5.13512 0C8.33331 0 10.1802 1.8411 10.1802 5.11917V20.8808H10.1351ZM5.13512 22.8566C5.8108 22.8566 6.08107 22.228 6.08107 21.1952V4.75993C6.08107 3.72712 5.8108 3.09845 5.13512 3.09845C4.45945 3.09845 4.18918 3.72712 4.18918 4.75993V21.1952C4.18918 22.228 4.45945 22.8566 5.13512 22.8566Z" fill="#F6F6F6"/>
<path d="M18.2882 13.0226H18.3783V0.269531H21.9369V25.7307H18.2882L15.4054 10.8222H15.3603V25.7307H11.8018V0.269531H16.1711L18.3333 13.0226H18.2882Z" fill="#F6F6F6"/>
<path d="M30.0469 3.63741V25.7307H25.9478V3.63741H23.2451V0.269531H32.7946V3.63741H30.0919H30.0469Z" fill="#A58491"/>
<path d="M40.3631 14.6391H38.1559V25.7307H34.0117V0.269531H38.1559V11.1365H40.3631V0.269531H44.4621V25.7307H40.3631V14.6391Z" fill="#A58491"/>
<path d="M46.1738 0.269531H54.1918V3.63741H50.2729V11.1814H53.7414V14.5493H50.2729V22.3628H54.1918V25.7307H46.1738V0.269531Z" fill="#A58491"/>
<path d="M60.5404 25.7307L59.2791 12.798L58.9638 9.65468H58.8737V12.798V25.7307H55.4053V0.269531H60.4503L61.7116 13.292L61.9818 16.1659H62.0719L62.2971 13.292L63.6935 0.269531H68.6935V25.7307H64.9998V9.65468H64.9098L64.6845 12.798L63.3782 25.7307H60.5404Z" fill="#F6F6F6"/>
<path d="M80.4056 20.8808C80.4056 24.2038 78.5137 26 75.3606 26C72.2074 26 70.2705 24.1589 70.2705 20.8808V5.11917C70.2705 1.7962 72.1624 0 75.3606 0C78.5588 0 80.4056 1.8411 80.4056 5.11917V20.8808ZM75.3606 22.8566C76.0363 22.8566 76.3065 22.228 76.3065 21.1952V4.75993C76.3065 3.72712 76.0363 3.09845 75.3606 3.09845C74.6849 3.09845 74.4146 3.72712 74.4146 4.75993V21.1952C74.4146 22.228 74.6849 22.8566 75.3606 22.8566Z" fill="#F6F6F6"/>
<path d="M84.1451 25.7307L81.082 0.269531H85.3163L86.2622 13.741L86.4874 17.1538H86.5775L86.8027 13.741L87.7487 0.269531H91.8027L88.7397 25.7307H84.1H84.1451Z" fill="#F6F6F6"/>
<path d="M92.8818 0.269531H100.9V3.63741H96.9809V11.1814H100.449V14.5493H96.9809V22.3628H100.9V25.7307H92.8818V0.269531Z" fill="#F6F6F6"/>
</svg>
